<svg width="21" height="20" viewBox="0 0 21 20" fill="none" xmlns="http://www.w3.org/2000/svg">
<g clip-path="url(#clip0)">
<path d="M15.0862 0H5.91381C2.92858 0 0.5 2.42858 0.5 5.41381V14.5863C0.5 17.5714 2.92858 20 5.91381 20H15.0863C18.0714 20 20.5 17.5714 20.5 14.5863V5.41381C20.5 2.42858 18.0714 0 15.0862 0V0ZM10.5 15.4686C7.48454 15.4686 5.03139 13.0154 5.03139 9.99998C5.03139 6.98454 7.48454 4.53139 10.5 4.53139C13.5154 4.53139 15.9686 6.98454 15.9686 9.99998C15.9686 13.0154 13.5154 15.4686 10.5 15.4686V15.4686ZM16.0993 5.82106C15.2082 5.82106 14.4834 5.09627 14.4834 4.20516C14.4834 3.31405 15.2082 2.58911 16.0993 2.58911C16.9904 2.58911 17.7154 3.31405 17.7154 4.20516C17.7154 5.09627 16.9904 5.82106 16.0993 5.82106Z" fill="#BEC5C5"/>
<path d="M10.5002 5.70386C8.13144 5.70386 6.2041 7.63104 6.2041 9.99996C6.2041 12.3687 8.13144 14.2961 10.5002 14.2961C12.8691 14.2961 14.7963 12.3687 14.7963 9.99996C14.7963 7.63104 12.8691 5.70386 10.5002 5.70386V5.70386Z" fill="#BEC5C5"/>
<path d="M16.0992 3.76172C15.8547 3.76172 15.6558 3.96069 15.6558 4.20514C15.6558 4.44958 15.8547 4.64856 16.0992 4.64856C16.3438 4.64856 16.5428 4.44974 16.5428 4.20514C16.5428 3.96054 16.3438 3.76172 16.0992 3.76172Z" fill="#BEC5C5"/>
</g>
<defs>
<clipPath id="clip0">
<rect width="20" height="20" fill="white" transform="translate(0.5)"/>
</clipPath>
</defs>
</svg>
