<svg width="26" height="25" viewBox="0 0 26 25" fill="none" xmlns="http://www.w3.org/2000/svg">
<path d="M11.0005 5C15.136 5 18.5005 8.2493 18.5005 12.2432C18.5005 17.1998 11.7887 24.4763 11.503 24.7837C11.2346 25.0724 10.7659 25.0719 10.498 24.7837C10.2123 24.4763 3.50049 17.1998 3.50049 12.2432C3.50057 8.2493 6.86501 5 11.0005 5ZM11.0005 15.8875C13.0812 15.8875 14.7739 14.2527 14.7739 12.2432C14.7739 10.2338 13.0811 8.59899 11.0005 8.59899C8.91984 8.59899 7.22713 10.2338 7.22713 12.2433C7.22713 14.2527 8.91984 15.8875 11.0005 15.8875Z" fill="#70ABCD"/>
</svg>
