<svg width="22" height="21" viewBox="0 0 22 21" fill="none" xmlns="http://www.w3.org/2000/svg">
<g clip-path="url(#clip0)">
<path d="M21.3267 2.76548C21.121 2.51441 20.7799 2.4213 20.4766 2.53303L1.21333 9.50794C0.82849 9.64808 0.558364 9.98793 0.508216 10.3949C0.458549 10.7999 0.63671 11.1929 0.970924 11.4191L3.72442 13.3024C3.99118 13.4849 4.33421 13.5045 4.61987 13.3535L10.5928 10.1976L5.93766 13.6803C5.71912 13.8439 5.58855 14.1047 5.58855 14.378V17.604C5.58855 17.9368 5.77071 18.2416 6.06391 18.3999C6.35759 18.5582 6.71231 18.5425 6.99125 18.3582L9.08321 16.9678L11.1404 18.3733C11.3206 18.497 11.5353 18.5622 11.7519 18.5622C11.8252 18.5622 11.8987 18.5547 11.9711 18.5396C12.26 18.4792 12.5155 18.3004 12.6724 18.049L21.3877 3.64969C21.5574 3.37245 21.5331 3.01768 21.3267 2.76548V2.76548Z" fill="#BEC5C5"/>
</g>
<defs>
<clipPath id="clip0">
<rect width="21" height="21" fill="white" transform="translate(0.5)"/>
</clipPath>
</defs>
</svg>
