<svg width="21" height="21" viewBox="0 0 21 21" fill="none" xmlns="http://www.w3.org/2000/svg">
<g clip-path="url(#clip0)">
<path d="M20.8267 2.76548C20.621 2.51441 20.2799 2.4213 19.9766 2.53303L0.713332 9.50794C0.32849 9.64808 0.0583642 9.98793 0.00821616 10.3949C-0.0414512 10.7999 0.13671 11.1929 0.470924 11.4191L3.22442 13.3024C3.49118 13.4849 3.83421 13.5045 4.11987 13.3535L10.0928 10.1976L5.43766 13.6803C5.21912 13.8439 5.08855 14.1047 5.08855 14.378V17.604C5.08855 17.9368 5.27071 18.2416 5.56391 18.3999C5.85759 18.5582 6.21231 18.5425 6.49125 18.3582L8.58321 16.9678L10.6404 18.3733C10.8206 18.497 11.0353 18.5622 11.2519 18.5622C11.3252 18.5622 11.3987 18.5547 11.4711 18.5396C11.76 18.4792 12.0155 18.3004 12.1724 18.049L20.8877 3.64969C21.0574 3.37245 21.0331 3.01768 20.8267 2.76548V2.76548Z" fill="#70ABCD"/>
</g>
<defs>
<clipPath id="clip0">
<rect width="21" height="21" fill="white"/>
</clipPath>
</defs>
</svg>
