<svg width="50" height="49" viewBox="0 0 50 49" fill="none" xmlns="http://www.w3.org/2000/svg">
<g clip-path="url(#clip0)">
<path d="M28.0156 15.6504C28.412 15.6504 28.7334 15.329 28.7334 14.9326V14.7183C28.7334 14.3219 28.412 14.0005 28.0156 14.0005C27.6192 14.0005 27.2979 14.3219 27.2979 14.7183V14.9326C27.2979 15.3291 27.6192 15.6504 28.0156 15.6504Z" fill="#70ABCD"/>
<path d="M46.5356 22.7467C47.1718 21.8081 47.544 20.6763 47.544 19.4593C47.544 16.1918 44.8627 13.5391 41.5864 13.5889C38.4936 13.636 35.9386 16.1249 35.8127 19.2154C35.7597 20.5189 36.1342 21.7341 36.807 22.7324C36.011 23.1926 35.1894 23.8973 34.4699 25.1531C32.9865 24.4765 31.2389 24.1083 29.7505 23.795C29.3956 23.7204 29.0532 23.6482 28.7331 23.5759V22.9705C30.3192 22.0187 31.4866 20.5921 31.4866 19.2503C31.4866 19.0927 31.473 18.9503 31.4479 18.821C31.5129 18.6733 31.5727 18.5255 31.6273 18.378C33.1873 18.2162 34.3079 17.3378 34.3079 16.2108L34.3133 14.6209C34.3133 13.8197 33.674 13.1921 32.8577 13.1921H32.0598L32.0617 11.485C32.0646 9.54404 31.2922 7.90637 29.828 6.74893C28.564 5.7496 26.8661 5.18811 25.0473 5.16792C25.0419 5.16782 25.0367 5.16782 25.0313 5.16792C23.2125 5.18811 21.5146 5.7496 20.2505 6.74893C18.7864 7.90637 18.014 9.54404 18.0168 11.4839V13.1921H17.2181C16.4018 13.1921 15.7624 13.8198 15.7624 14.6234L15.7679 16.2107C15.7714 17.3379 16.8917 18.2148 18.4483 18.3775C18.5031 18.5256 18.5632 18.6737 18.6284 18.8221C18.6033 18.9513 18.5892 19.0929 18.5892 19.2504C18.5892 20.5919 19.7566 22.0181 21.3428 22.9699V23.576C21.0227 23.6483 20.6802 23.7204 20.3254 23.7951C18.8168 24.1127 17.042 24.4866 15.5459 25.1811C14.8215 23.908 13.9936 23.1976 13.1922 22.7337C13.8657 21.7349 14.2406 20.5188 14.1873 19.2146C14.0609 16.1231 11.5041 13.6344 8.41053 13.5889C5.13404 13.5407 2.4533 16.1927 2.4533 19.4592C2.4533 20.6767 2.82597 21.8088 3.46287 22.7475C1.63781 23.8728 0.5 25.867 0.5 28.0479V31.2744C0.5 32.4756 1.47378 33.4493 2.67495 33.4493H9.13089C9.52394 33.4493 9.86666 33.1465 9.87843 32.7537C9.89068 32.3472 9.56471 32.0138 9.16094 32.0138H2.67457C2.26639 32.0138 1.93555 31.6829 1.93555 31.2748V28.0479C1.93555 26.2877 2.90043 24.6857 4.42861 23.8468C4.71553 24.1019 5.02762 24.3289 5.36057 24.5245L7.77707 29.6304C7.89584 29.8812 8.1485 30.0412 8.42585 30.0412H8.42881C8.70664 30.0412 8.9592 29.8798 9.07586 29.6277L11.5009 24.3912C11.7566 24.2259 11.9988 24.0416 12.2253 23.8397C12.9064 24.1839 13.6352 24.721 14.2996 25.8926C13.2817 26.6139 12.5414 27.5867 12.3522 28.9438L11.3195 35.4369C11.3136 35.4739 11.3106 35.5115 11.3106 35.549V38.8077C11.3106 39.8518 12.1586 40.7007 13.2008 40.7007H18.8865C19.5947 40.7007 20.2455 40.448 20.7527 40.0269L24.1214 43.366C24.3578 43.6024 24.6715 43.8223 25.0178 43.8318C25.368 43.8414 25.7235 43.6125 25.957 43.366L29.2626 40.0882C29.7584 40.4719 30.3795 40.7007 31.0542 40.7007H36.737C37.7802 40.7007 38.63 39.8518 38.63 38.8077V35.549C38.63 35.5427 38.6265 35.4768 38.6229 35.4504L37.725 28.9515C37.5341 27.5661 36.7699 26.5806 35.722 25.8542C36.3793 24.7089 37.0997 24.1789 37.7737 23.8386C38.0004 24.0411 38.2431 24.2256 38.4992 24.3912L40.9242 29.6277C41.041 29.8798 41.2936 30.0412 41.5713 30.0412H41.5742C41.8516 30.0412 42.1044 29.8813 42.223 29.6304L44.64 24.5235C44.9724 24.3281 45.2839 24.1011 45.5703 23.8462C47.0991 24.6849 48.0645 26.2872 48.0645 28.0479V31.2744C48.0645 31.6821 47.7317 32.0138 47.3228 32.0138H40.8664C40.4734 32.0138 40.1307 32.3166 40.1189 32.7095C40.1066 33.1159 40.4326 33.4493 40.8364 33.4493H47.3228C48.5233 33.4493 49.5 32.4736 49.5 31.2744V28.0479C49.5 25.8663 48.3615 23.8718 46.5356 22.7467V22.7467ZM32.0591 16.0889V14.6276H32.8578C32.8666 14.6276 32.8733 14.6289 32.8778 14.6305L32.8724 16.2082C32.8724 16.4132 32.5487 16.6888 32.0104 16.8458C32.0426 16.5918 32.0591 16.3393 32.0591 16.0889V16.0889ZM17.2034 16.2058L17.1981 14.6305C17.2026 14.6289 17.2093 14.6276 17.2181 14.6276H18.0168V16.0889C18.0168 16.339 18.0332 16.5911 18.0654 16.8448C17.528 16.687 17.2041 16.4112 17.2034 16.2058V16.2058ZM8.41876 27.6305L7.28573 25.2366C7.62261 25.297 7.96877 25.3302 8.32268 25.3302C8.74128 25.3302 9.14946 25.2853 9.54356 25.2015L8.41876 27.6305ZM12.7385 19.8651C12.5493 21.9825 10.8447 23.6878 8.72741 23.8765C5.96474 24.1229 3.66002 21.8169 3.90703 19.0532C4.09624 16.9359 5.80071 15.2305 7.91814 15.0417C10.6807 14.7955 12.9855 17.1014 12.7385 19.8651ZM19.4525 11.4827C19.4476 8.17625 22.3436 6.63629 25.0393 6.60337C27.7351 6.63629 30.6311 8.17625 30.6262 11.483L30.6253 12.2323C29.2616 11.32 27.2579 10.7769 25.0521 10.7769C25.0434 10.7769 25.035 10.7769 25.0265 10.7769C22.8204 10.7769 20.8163 11.3196 19.4524 12.2313V11.4827H19.4525ZM19.7029 17.6105C19.6889 17.5664 19.676 17.5221 19.6625 17.4779C19.524 17.0045 19.4525 16.5397 19.4525 16.0889V14.1397C20.3519 12.9778 22.5526 12.2099 25.0387 12.2124C25.043 12.2123 25.0476 12.2124 25.0522 12.2124C27.529 12.2124 29.7255 12.9797 30.6235 14.1397V16.0889C30.6235 16.5817 30.5386 17.0909 30.3732 17.6102C30.1499 17.5102 29.9189 17.4282 29.6899 17.3422C27.7116 16.5875 26.365 16.2775 25.0423 16.272C25.0403 16.272 25.0384 16.272 25.0364 16.272C23.7117 16.2774 22.3644 16.5875 20.3878 17.3415C20.1582 17.4277 19.9268 17.5102 19.7029 17.6105V17.6105ZM20.0249 19.2502C20.0249 19.2487 20.0249 19.2472 20.0249 19.2458C20.0253 19.1183 20.0994 19.0029 20.2135 18.9462C20.468 18.8197 20.8977 18.6835 20.8977 18.6835C22.7011 17.9956 23.9013 17.7128 25.0394 17.7076C26.1756 17.7128 27.3751 17.9957 29.1802 18.6842C29.396 18.7652 29.618 18.84 29.8189 18.9541C29.9352 19.0202 30.0512 19.1047 30.0512 19.2502C30.0512 20.4833 27.5755 22.6238 25.0394 22.6437C22.5019 22.6238 20.0249 20.4833 20.0249 19.2502ZM27.2975 23.6535V24.143C27.2975 24.7803 27.0844 25.2797 26.6642 25.6275C26.278 25.9472 25.7357 26.1232 25.1372 26.1232C24.189 26.1232 22.7783 25.5958 22.7783 24.143V23.6529C23.5126 23.918 24.2824 24.0741 25.0345 24.0791H25.0393C25.0393 24.0791 25.0426 24.0791 25.0442 24.0791C25.7953 24.0741 26.5642 23.9182 27.2975 23.6535V23.6535ZM20.6212 25.1997C20.9082 25.1393 21.1873 25.0806 21.4555 25.0215C21.8946 26.6755 23.5579 27.5587 25.1373 27.5587C26.0692 27.5587 26.9366 27.2657 27.5796 26.7334C28.1162 26.2893 28.4718 25.7076 28.6332 25.0242C28.8976 25.0823 29.1723 25.1402 29.4549 25.1996C29.659 25.2426 29.8669 25.2865 30.0768 25.3315L26.4051 30.2248C25.9067 30.4624 25.4418 30.7718 25.0384 31.1339C24.6345 30.7718 24.1695 30.4625 23.6711 30.2249L19.9993 25.3316C20.2091 25.2865 20.417 25.2427 20.6212 25.1997V25.1997ZM13.771 29.162C13.7717 29.1571 13.7725 29.1522 13.7732 29.1472C14.0433 27.1859 16.1878 26.2777 18.4714 25.6873L21.4894 29.7094C20.4804 29.712 19.4827 30.066 18.6712 30.9061C17.6357 31.9799 17.1716 33.425 17.2788 34.8309H12.8694L13.771 29.162ZM19.7239 39.0074C19.4846 39.1701 19.1966 39.2648 18.8865 39.2648H13.2008C12.95 39.2648 12.7462 39.06 12.7462 38.8074V36.2665H18.8865C18.9927 36.2665 19.0961 36.2779 19.1956 36.299C19.8301 36.433 20.3182 36.9708 20.3766 37.6321C20.3804 37.6762 20.3823 37.7202 20.3823 37.7652C20.3823 38.282 20.1211 38.7375 19.7239 39.0074ZM28.1201 37.7323C28.1153 38.1654 28.2048 38.5788 28.3697 38.9509L25.0392 42.2546L21.6083 38.8543C21.7432 38.5174 21.8179 38.1499 21.8179 37.7652C21.8179 36.1468 20.5029 34.8309 18.8865 34.8309H18.7152C18.6042 33.7877 18.9343 32.7025 19.7038 31.9033C20.9278 30.6362 22.8763 31.1167 24.0908 32.2134C24.1731 32.2862 24.2382 32.3493 24.2928 32.4C24.4928 32.5895 24.6985 32.7848 25.0392 32.7848C25.378 32.7848 25.5819 32.5905 25.78 32.4029C25.8345 32.3512 25.9015 32.2881 25.9867 32.2115C27.2002 31.1167 29.1487 30.6362 30.3718 31.9024C31.1422 32.7015 31.4724 33.7868 31.3614 34.8309H31.1147C29.4968 34.8309 28.1378 36.1147 28.1201 37.7323V37.7323ZM37.1945 38.8074C37.1945 39.059 36.9886 39.2648 36.737 39.2648H31.0542C30.7786 39.2648 30.5211 39.1902 30.2991 39.06C29.8569 38.8016 29.5593 38.3222 29.5555 37.7747V37.7652C29.5555 36.9919 30.1421 36.3545 30.8944 36.2751C30.947 36.2693 31.0006 36.2665 31.0542 36.2665H37.1945V38.8074ZM36.3029 29.1475L37.0882 34.831H32.7979C32.9041 33.4251 32.44 31.98 31.4045 30.9062C30.5932 30.0659 29.5955 29.712 28.5867 29.7094L31.6046 25.6874C33.8881 26.2777 36.0327 27.1859 36.3029 29.1475ZM41.5812 27.6305L40.4564 25.2015C40.8504 25.2853 41.2587 25.3302 41.6773 25.3302C42.0313 25.3302 42.3775 25.2969 42.7144 25.2365L41.5812 27.6305ZM41.6772 23.8946C39.1203 23.8946 37.062 21.7184 37.2559 19.1204C37.4178 16.9527 39.1659 15.2013 41.3335 15.0368C43.9314 14.8397 46.1085 16.8998 46.1085 19.4593C46.1085 21.905 44.1206 23.8946 41.6772 23.8946Z" fill="#70ABCD"/>
<path d="M22.0605 15.6504C22.4569 15.6504 22.7783 15.329 22.7783 14.9326V14.7183C22.7783 14.3219 22.4569 14.0005 22.0605 14.0005C21.6641 14.0005 21.3428 14.3219 21.3428 14.7183V14.9326C21.3428 15.3291 21.6641 15.6504 22.0605 15.6504Z" fill="#70ABCD"/>
</g>
<defs>
<clipPath id="clip0">
<rect width="49" height="49" fill="white" transform="translate(0.5)"/>
</clipPath>
</defs>
</svg>
