<svg width="61" height="60" viewBox="0 0 61 60" fill="none" xmlns="http://www.w3.org/2000/svg">
<g clip-path="url(#clip0)">
<path d="M47.375 9.37451H46.4178C46.4272 9.21889 46.4375 9.06232 46.4375 8.90576C46.4375 7.60639 46.8847 6.33232 47.6966 5.31795L49.9822 2.46045L48.5178 1.28857L46.2312 4.14607C45.1559 5.49139 44.5625 7.18264 44.5625 8.90576C44.5625 10.2051 44.1153 11.4792 43.3034 12.4936L41.3928 14.8814C40.8931 14.6217 40.3522 14.4164 39.7784 14.2776L41.0441 12.6951C42.1034 11.3704 42.6875 9.70639 42.6875 8.01045V7.8117C42.6875 6.60232 43.0869 5.4042 43.8125 4.4367L45.3125 2.43701L43.8125 1.31201L42.3125 3.3117C41.5334 4.34951 41.0525 5.58982 40.8884 6.87514C37.8322 5.45764 34.2012 4.68701 30.5 4.68701C26.7988 4.68701 23.1678 5.45764 20.1106 6.87514C19.9466 5.58982 19.4656 4.35045 18.6866 3.31264L17.1875 1.31201L15.6875 2.43701L17.1875 4.43857C17.9131 5.4042 18.3125 6.60326 18.3125 7.81264V8.01139C18.3125 9.70826 18.8966 11.3714 19.9559 12.6961L21.2216 14.2786C20.6469 14.4173 20.1059 14.6226 19.6072 14.8823L17.6966 12.4945C16.8847 11.4792 16.4375 10.2051 16.4375 8.90576C16.4375 7.18264 15.8441 5.49139 14.7688 4.14607L12.4831 1.28857L11.0188 2.46045L13.3044 5.31795C14.1153 6.33232 14.5625 7.60639 14.5625 8.90576C14.5625 9.06232 14.5728 9.21889 14.5822 9.37451H13.625C6.905 9.37451 1.4375 14.842 1.4375 21.562V25.7911C1.4375 29.317 2.62906 32.7923 4.79469 35.5758L5.03844 35.8889C6.94813 38.3433 8 41.4098 8 44.5204V51.562C8 55.6973 10.9447 59.062 14.5625 59.062C18.1803 59.062 21.125 55.6973 21.125 51.562C21.125 47.4267 18.1803 44.062 14.5625 44.062C14.2437 44.062 13.9325 44.0967 13.625 44.1473V42.6454C13.625 39.1195 12.4334 35.6442 10.2678 32.8608L10.0241 32.5476C8.11438 30.0933 7.0625 27.0267 7.0625 23.9161V21.562C7.0625 18.4561 9.23375 15.8536 12.1362 15.1767C11.8887 16.0364 11.75 16.9167 11.75 17.812C11.75 23.6779 17.2766 28.6551 24.875 30.3314V37.9683C24.875 39.2779 24.4419 40.5764 23.6563 41.6236C22.6288 42.9942 22.0625 44.6929 22.0625 46.4058V47.0892C22.0625 48.3192 22.3541 49.5511 22.9034 50.6536L25.5903 56.0273C26.5269 57.8995 28.4084 59.062 30.5 59.062C32.5916 59.062 34.4731 57.8995 35.4088 56.0283L38.0956 50.6545C38.6459 49.5511 38.9375 48.3192 38.9375 47.0892V46.4058C38.9375 44.6929 38.3712 42.9942 37.3437 41.6236C36.5581 40.5764 36.125 39.2779 36.125 37.9683V30.3314C43.7234 28.6551 49.25 23.6779 49.25 17.812C49.25 16.9167 49.1113 16.0364 48.8628 15.1758C51.7663 15.8526 53.9375 18.4561 53.9375 21.562V23.9161C53.9375 27.0267 52.8856 30.0933 50.9759 32.5486L50.7322 32.8617C48.5666 35.6442 47.375 39.1204 47.375 42.6454V44.1473C47.0675 44.0967 46.7563 44.062 46.4375 44.062C42.8197 44.062 39.875 47.4267 39.875 51.562C39.875 55.6973 42.8197 59.062 46.4375 59.062C50.0553 59.062 53 55.6973 53 51.562V44.5204C53 41.4098 54.0519 38.3433 55.9616 35.8879L56.2053 35.5748C58.3709 32.7923 59.5625 29.3161 59.5625 25.7911V21.562C59.5625 14.842 54.095 9.37451 47.375 9.37451V9.37451ZM38 15.937C38.2091 15.937 38.4088 15.9651 38.6113 15.9867C38.4575 16.5783 38.3272 17.1745 38.2325 17.7773C37.4225 17.7023 36.6256 17.4829 35.8981 17.1192L35.6066 16.9739L34.7675 18.6511L35.0591 18.7964C35.9881 19.2614 37.0072 19.5426 38.0422 19.6411C38.0225 19.9936 38 20.347 38 20.7023V21.562H39.875V20.7023C39.875 19.2764 40.0606 17.8636 40.4159 16.4901C41.7706 17.1473 42.6875 18.3286 42.6875 19.687C42.6875 21.7551 40.5847 23.437 38 23.437C35.4153 23.437 33.3125 21.7551 33.3125 19.687C33.3125 17.6189 35.4153 15.937 38 15.937V15.937ZM20.5841 16.4901C20.9394 17.8654 21.125 19.2764 21.125 20.7023V21.562H23V20.7023C23 20.347 22.9775 19.9936 22.9578 19.6411C23.9928 19.5426 25.0119 19.2614 25.9409 18.7964L26.2325 18.6511L25.3934 16.9739L25.1019 17.1192C24.3753 17.4829 23.5775 17.7014 22.7675 17.7773C22.6728 17.1754 22.5425 16.5792 22.3887 15.9867C22.5912 15.9651 22.7909 15.937 23 15.937C25.5847 15.937 27.6875 17.6189 27.6875 19.687C27.6875 21.7551 25.5847 23.437 23 23.437C20.4153 23.437 18.3125 21.7551 18.3125 19.687C18.3125 18.3286 19.2284 17.1483 20.5841 16.4901V16.4901ZM19.25 51.562C19.25 54.6642 17.1472 57.187 14.5625 57.187C11.9778 57.187 9.875 54.6642 9.875 51.562C9.875 48.4598 11.9778 45.937 14.5625 45.937C17.1472 45.937 19.25 48.4598 19.25 51.562ZM5.1875 21.562V23.9161C5.1875 27.442 6.37906 30.9173 8.54469 33.7008L8.78844 34.0139C10.6981 36.4683 11.75 39.5348 11.75 42.6454V44.7961C11.0478 45.1786 10.4131 45.6951 9.875 46.3233V44.5204C9.875 40.9945 8.68344 37.5192 6.51781 34.7358L6.27406 34.4226C4.36437 31.9683 3.3125 28.9017 3.3125 25.7911V21.562C3.3125 15.8761 7.93906 11.2495 13.625 11.2495H14.2494C13.7441 11.8626 13.3175 12.5001 12.9631 13.1583C8.61969 13.4976 5.1875 17.1333 5.1875 21.562V21.562ZM24.5816 49.8155C24.1597 48.9726 23.9375 48.0295 23.9375 47.0892V46.4058C23.9375 45.0961 24.3706 43.7976 25.1562 42.7505C26.1847 41.3798 26.75 39.682 26.75 37.9683V30.6726C27.6631 30.8029 28.6063 30.8704 29.5625 30.9042V38.437V43.5042C29.5625 47.6011 28.8284 51.5986 27.3931 55.4001C27.3519 55.3298 27.3059 55.2633 27.2684 55.1892L24.5816 49.8155ZM28.8575 56.7867C29.5409 55.0889 30.0884 53.3545 30.5009 51.5911C30.9125 53.3536 31.46 55.087 32.1434 56.7867C31.6437 57.0408 31.0869 57.187 30.5 57.187C29.9131 57.187 29.3562 57.0408 28.8575 56.7867ZM35.8438 42.7505C36.6294 43.7976 37.0625 45.0961 37.0625 46.4058V47.0892C37.0625 48.0295 36.8403 48.9726 36.4184 49.8145L33.7316 55.1883C33.695 55.2623 33.6481 55.3289 33.6069 55.3992C32.1697 51.5911 31.4375 47.5973 31.4375 43.5042V38.437V30.9042C32.3937 30.8704 33.3369 30.8029 34.25 30.6726V37.9683C34.25 39.6811 34.8163 41.3798 35.8438 42.7505V42.7505ZM30.5 29.062C21.1953 29.062 13.625 24.0154 13.625 17.812C13.625 15.9989 14.2906 14.2345 15.5422 12.6389C15.7438 12.9979 15.9725 13.342 16.2313 13.6664L18.08 15.9773C17.0619 16.9683 16.4375 18.2648 16.4375 19.687C16.4375 22.7892 19.3822 25.312 23 25.312C26.6178 25.312 29.5625 22.7892 29.5625 19.687C29.5625 16.7208 26.8672 14.2889 23.4678 14.0826L21.4212 11.5233C20.8119 10.7629 20.4172 9.85264 20.2634 8.89732C23.1969 7.39357 26.7997 6.56201 30.5 6.56201C34.2003 6.56201 37.8031 7.39357 40.7366 8.89732C40.5828 9.85264 40.1881 10.7629 39.5787 11.5233L37.5322 14.0826C34.1328 14.2889 31.4375 16.7208 31.4375 19.687C31.4375 22.7892 34.3822 25.312 38 25.312C41.6178 25.312 44.5625 22.7892 44.5625 19.687C44.5625 18.2648 43.9381 16.9683 42.9191 15.9764L44.7678 13.6654C45.0266 13.342 45.2553 12.997 45.4569 12.6379C46.7094 14.2345 47.375 15.9998 47.375 17.812C47.375 24.0154 39.8047 29.062 30.5 29.062ZM46.4375 57.187C43.8528 57.187 41.75 54.6642 41.75 51.562C41.75 48.4598 43.8528 45.937 46.4375 45.937C49.0222 45.937 51.125 48.4598 51.125 51.562C51.125 54.6642 49.0222 57.187 46.4375 57.187ZM57.6875 25.7911C57.6875 28.9017 56.6356 31.9683 54.7259 34.4236L54.4822 34.7367C52.3166 37.5192 51.125 40.9954 51.125 44.5204V46.3233C50.5869 45.6951 49.9522 45.1786 49.25 44.7961V42.6454C49.25 39.5348 50.3019 36.4683 52.2116 34.0129L52.4553 33.6998C54.6209 30.9173 55.8125 27.4411 55.8125 23.9161V21.562C55.8125 17.1323 52.3803 13.4976 48.0369 13.1583C47.6825 12.5011 47.255 11.8626 46.7506 11.2495H47.375C53.0609 11.2495 57.6875 15.8761 57.6875 21.562V25.7911Z" fill="#70ABCD"/>
</g>
<defs>
<clipPath id="clip0">
<rect width="60" height="60" fill="white" transform="translate(0.5 -0.000488281)"/>
</clipPath>
</defs>
</svg>
