<svg width="46" height="60" viewBox="0 0 46 60" fill="none" xmlns="http://www.w3.org/2000/svg">
<g clip-path="url(#clip0)">
<path d="M33.7325 60.0138C32.9332 60.0011 32.1363 59.9205 31.3507 59.7728C22.5747 58.2274 6.85158 49.6782 2.21547 39.768C-3.92347 26.6962 8.3119 19.9193 8.4395 19.9193C8.52189 19.8677 8.61399 19.8336 8.71009 19.8192C8.8062 19.8047 8.90426 19.8102 8.99816 19.8352C9.09207 19.8603 9.17979 19.9044 9.25595 19.9647C9.3321 20.0251 9.39504 20.1005 9.44083 20.1862C9.48661 20.2719 9.51429 20.3662 9.52212 20.463C9.52996 20.5599 9.51776 20.6574 9.48634 20.7493C9.45493 20.8413 9.40496 20.9258 9.3395 20.9976C9.27404 21.0695 9.19452 21.1271 9.10585 21.1669C8.65217 21.4221 -2.05199 27.3342 3.43478 39.1867C7.88657 48.6858 23.0567 56.9089 31.5349 58.3833C33.5765 58.752 35.1077 58.6385 35.6323 58.114C38.8365 54.924 46.2798 44.149 42.9055 32.4807C39.8147 32.3106 26.9414 31.2898 26.9414 25.4769C26.9414 17.9769 30.1455 12.9722 35.9442 11.3843C36.0499 11.3535 36.1612 11.3477 36.2695 11.3674C36.3778 11.3871 36.48 11.4317 36.568 11.4977C36.6561 11.5637 36.7275 11.6494 36.7768 11.7478C36.826 11.8462 36.8516 11.9548 36.8516 12.0648V16.1055C36.8461 17.0519 37.0302 17.9899 37.393 18.864C37.7558 19.7382 38.29 20.5308 38.9641 21.1952C40.7788 23.0242 42.5227 26.5119 44.1106 31.5591C47.9102 43.6385 40.878 54.8531 36.6389 59.0922C35.8247 59.7619 34.7838 60.0919 33.7325 60.0138V60.0138ZM35.4905 13.0147C29.6777 15.0989 28.4017 20.8834 28.4017 25.4627C28.4017 29.2907 37.7731 30.7085 42.4801 31.0204C40.7079 25.6754 39.0775 23.2652 38 22.1877C37.1945 21.3908 36.5564 20.441 36.123 19.3941C35.6896 18.3472 35.4698 17.2243 35.4763 16.0913L35.4905 13.0147Z" fill="#70ABCD"/>
<path d="M18.6616 21.8332H18.4064C18.3198 21.7989 18.2408 21.7477 18.174 21.6828C18.1071 21.6179 18.0537 21.5404 18.0168 21.4548C17.9799 21.3692 17.9603 21.2772 17.959 21.184C17.9578 21.0908 17.9749 20.9983 18.0095 20.9117C18.2788 20.2453 24.6446 4.67822 38 4.67822C38.188 4.67822 38.3683 4.75292 38.5013 4.88586C38.6342 5.0188 38.7089 5.1991 38.7089 5.38711C38.7089 5.57512 38.6342 5.75541 38.5013 5.88835C38.3683 6.0213 38.188 6.09599 38 6.09599C25.6229 6.09599 19.3847 21.2803 19.328 21.4363C19.2661 21.5589 19.1705 21.6613 19.0525 21.7317C18.9345 21.802 18.7989 21.8372 18.6616 21.8332V21.8332Z" fill="#70ABCD"/>
<path d="M44.5501 12.7027H39.9281C39.7401 12.7027 39.5598 12.628 39.4269 12.495C39.2939 12.3621 39.2192 12.1818 39.2192 11.9938C39.2192 11.8058 39.2939 11.6255 39.4269 11.4925C39.5598 11.3596 39.7401 11.2849 39.9281 11.2849H44.5359C44.7239 11.2849 44.9042 11.3596 45.0371 11.4925C45.1701 11.6255 45.2448 11.8058 45.2448 11.9938C45.2448 12.1818 45.1701 12.3621 45.0371 12.495C44.9042 12.628 44.7239 12.7027 44.5359 12.7027H44.5501Z" fill="#70ABCD"/>
<path d="M5.41933 23.804C5.23133 23.804 5.05103 23.7293 4.91809 23.5964C4.78515 23.4634 4.71045 23.2831 4.71045 23.0951V7.11684C4.71045 6.92884 4.78515 6.74854 4.91809 6.6156C5.05103 6.48266 5.23133 6.40796 5.41933 6.40796C5.60734 6.40796 5.78764 6.48266 5.92058 6.6156C6.05352 6.74854 6.12822 6.92884 6.12822 7.11684V23.0951C6.12822 23.2831 6.05352 23.4634 5.92058 23.5964C5.78764 23.7293 5.60734 23.804 5.41933 23.804Z" fill="#70ABCD"/>
<path d="M11.5727 12.7027C11.3846 12.7027 11.2043 12.628 11.0714 12.4951C10.9385 12.3621 10.8638 12.1818 10.8638 11.9938V7.05996C10.8674 6.87309 10.9433 6.6949 11.0754 6.56274C11.2076 6.43057 11.3858 6.3547 11.5727 6.35107C11.7607 6.35107 11.941 6.42577 12.0739 6.55871C12.2068 6.69165 12.2815 6.87195 12.2815 7.05996V11.9938C12.2815 12.1818 12.2068 12.3621 12.0739 12.4951C11.941 12.628 11.7607 12.7027 11.5727 12.7027Z" fill="#70ABCD"/>
<path d="M11.5728 19.6641C11.4792 19.666 11.3861 19.649 11.2993 19.6141C11.2124 19.5791 11.1334 19.527 11.0672 19.4608C11.001 19.3945 10.9489 19.3156 10.9139 19.2287C10.879 19.1418 10.862 19.0488 10.8639 18.9552V16.1196C10.8675 15.9328 10.9434 15.7545 11.0756 15.6224C11.2077 15.4902 11.3859 15.4144 11.5728 15.4108C11.7608 15.4108 11.9411 15.4855 12.074 15.6184C12.207 15.7513 12.2817 15.9316 12.2817 16.1196V17.8919L14.7628 17.0412C14.2807 14.7444 13.0473 6.88996 17.0596 2.86349C18.4815 1.61627 20.1791 0.724311 22.0128 0.260945C23.8465 -0.202421 25.7641 -0.223966 27.6078 0.198078C29.1167 0.444006 30.5393 1.06668 31.7437 2.00841C32.9482 2.95014 33.8955 4.18051 34.4982 5.58563C34.5324 5.67119 34.5494 5.76271 34.5479 5.85488C34.5465 5.94705 34.5267 6.03799 34.4897 6.12244C34.4528 6.20689 34.3994 6.28317 34.3327 6.34678C34.266 6.41039 34.1873 6.46009 34.1012 6.49298C34.0146 6.52751 33.9221 6.54465 33.8289 6.54338C33.7357 6.54212 33.6436 6.52245 33.5581 6.48558C33.4725 6.44871 33.395 6.39533 33.33 6.32848C33.2651 6.26163 33.214 6.18263 33.1796 6.096C32.6545 4.91489 31.8424 3.88379 30.8174 3.0964C29.7923 2.30901 28.5866 1.79032 27.3101 1.58751C25.6986 1.20853 24.0202 1.21787 22.413 1.61472C20.8059 2.01158 19.316 2.78458 18.0662 3.8701C13.9972 7.93909 16.2515 17.2397 16.2798 17.3389C16.3214 17.5098 16.298 17.69 16.2142 17.8446C16.1303 17.9992 15.992 18.1171 15.8261 18.1754L11.8138 19.5932C11.7383 19.6307 11.6567 19.6547 11.5728 19.6641V19.6641Z" fill="#70ABCD"/>
<path d="M22.9152 14.6451C22.8084 14.6467 22.7026 14.6232 22.6066 14.5764C22.5105 14.5296 22.4268 14.4608 22.3623 14.3757C22.0787 14.0354 19.5976 10.888 20.3065 8.47775C20.4653 7.98055 20.7497 7.53273 21.1322 7.17758C21.5147 6.82242 21.9823 6.57194 22.4899 6.45035C26.0627 5.28777 26.8141 5.71312 28.0759 7.21595C28.2886 7.47115 28.5296 7.75471 28.8415 8.06662C28.9079 8.13252 28.9607 8.2109 28.9967 8.29728C29.0327 8.38366 29.0512 8.47632 29.0512 8.5699C29.0512 8.66349 29.0327 8.75614 28.9967 8.84253C28.9607 8.92891 28.9079 9.00733 28.8415 9.07323C28.7778 9.14104 28.701 9.19507 28.6156 9.23202C28.5303 9.26896 28.4382 9.28805 28.3452 9.28805C28.2522 9.28805 28.1603 9.26896 28.0749 9.23202C27.9896 9.19507 27.9127 9.14104 27.8491 9.07323C27.544 8.77227 27.2553 8.45516 26.9842 8.1233C26.1335 7.10251 25.9067 6.83316 22.9294 7.79724C22.6419 7.85288 22.3741 7.98296 22.1527 8.17453C21.9312 8.3661 21.764 8.61244 21.6676 8.88891C21.2422 10.3067 22.816 12.6885 23.4682 13.4825C23.5548 13.5865 23.6099 13.7132 23.6268 13.8476C23.6437 13.982 23.6218 14.1184 23.5636 14.2407C23.5055 14.363 23.4135 14.4661 23.2986 14.5377C23.1837 14.6094 23.0506 14.6466 22.9152 14.6451V14.6451Z" fill="#70ABCD"/>
<path d="M5.41958 34.3378C5.26375 34.3394 5.1119 34.2885 4.98847 34.1934C4.86504 34.0982 4.77719 33.9644 4.73904 33.8133C4.32359 32.385 4.3948 30.8591 4.94148 29.4757C5.48816 28.0923 6.47929 26.9299 7.75889 26.1715C7.83969 26.1269 7.92855 26.0988 8.02031 26.089C8.11207 26.0791 8.20489 26.0876 8.29333 26.114C8.38176 26.1404 8.46407 26.1841 8.5354 26.2427C8.60674 26.3012 8.66569 26.3734 8.70882 26.455C8.79577 26.6211 8.81476 26.8145 8.76186 26.9944C8.70896 27.1742 8.58828 27.3265 8.42525 27.4191C7.41812 28.0208 6.64177 28.9428 6.22028 30.0377C5.79878 31.1325 5.7565 32.3371 6.10013 33.4588C6.14795 33.6393 6.12264 33.8313 6.02973 33.9932C5.93683 34.1551 5.78382 34.2739 5.6039 34.3236L5.41958 34.3378Z" fill="#70ABCD"/>
<path d="M5.4197 44.2482C5.26631 44.2482 5.11704 44.1984 4.99434 44.1064C4.87163 44.0144 4.7821 43.8851 4.73915 43.7378C3.09454 38.1943 8.63804 33.4731 12.6929 30.0138C14.7344 28.2699 16.8469 26.4694 16.8469 25.477C16.8469 25.2889 16.9216 25.1086 17.0546 24.9757C17.1875 24.8427 17.3678 24.7681 17.5558 24.7681C17.7438 24.7681 17.9241 24.8427 18.057 24.9757C18.19 25.1086 18.2647 25.2889 18.2647 25.477C18.2647 27.1216 16.2089 28.8796 13.6144 31.148C9.64465 34.5365 4.71083 38.7331 6.10024 43.3975C6.15288 43.578 6.13167 43.772 6.04127 43.9369C5.95087 44.1017 5.79865 44.2239 5.61816 44.2765L5.4197 44.2482Z" fill="#70ABCD"/>
<path d="M20.8452 42.7595C20.7654 42.773 20.6839 42.773 20.6041 42.7595C17.8395 41.8096 16.606 39.5695 15.4151 37.4145C14.2242 35.2595 13.3026 33.5582 11.1618 32.8209C11.0723 32.7937 10.9892 32.7486 10.9175 32.6885C10.8459 32.6284 10.7871 32.5544 10.7447 32.471C10.7024 32.3875 10.6773 32.2964 10.671 32.2031C10.6647 32.1097 10.6773 32.0161 10.7081 31.9277C10.7696 31.7482 10.8991 31.5999 11.0689 31.5151C11.2386 31.4302 11.435 31.4154 11.6155 31.474C14.3092 32.3956 15.5143 34.5932 16.6911 36.7198C17.8678 38.8465 18.8461 40.647 21.1004 41.4126C21.2884 41.4427 21.4567 41.5462 21.5684 41.7004C21.6801 41.8546 21.7259 42.0469 21.6958 42.2349C21.6658 42.4229 21.5622 42.5913 21.408 42.703C21.2538 42.8146 21.0615 42.8605 20.8735 42.8304L20.8452 42.7595Z" fill="#70ABCD"/>
<path d="M21.2563 38.2226C20.6826 38.2108 20.1099 38.1682 19.5408 38.095C18.3977 37.9531 17.2474 37.8773 16.0956 37.8682C15.9076 37.8682 15.7273 37.7935 15.5944 37.6606C15.4614 37.5276 15.3867 37.3473 15.3867 37.1593C15.3867 36.9713 15.4614 36.791 15.5944 36.6581C15.7273 36.5251 15.9076 36.4504 16.0956 36.4504C17.2996 36.463 18.5019 36.5435 19.6967 36.6915C22.2062 36.9608 22.6599 37.0175 23.4538 34.338C23.4799 34.2449 23.5241 34.1578 23.5838 34.0818C23.6435 34.0057 23.7175 33.9422 23.8018 33.8948C23.886 33.8474 23.9788 33.8171 24.0748 33.8056C24.1708 33.794 24.2681 33.8015 24.3612 33.8275C24.4543 33.8536 24.5413 33.8978 24.6174 33.9575C24.6934 34.0172 24.7569 34.0913 24.8043 34.1755C24.8517 34.2598 24.882 34.3526 24.8936 34.4486C24.9051 34.5445 24.8977 34.6418 24.8716 34.7349C23.9642 37.5421 22.9859 38.2226 21.2563 38.2226Z" fill="#70ABCD"/>
<path d="M31.7616 38.2226C31.5736 38.2226 31.3933 38.1479 31.2603 38.0149C31.1274 37.882 31.0527 37.7017 31.0527 37.5137C30.8991 34.789 31.6793 32.0934 33.2644 29.8719C33.3866 29.729 33.5606 29.6406 33.7481 29.6259C33.9355 29.6113 34.1211 29.6717 34.264 29.7939C34.4069 29.9161 34.4953 30.0901 34.5099 30.2776C34.5246 30.465 34.4641 30.6506 34.3419 30.7935C32.999 32.7682 32.3415 35.1291 32.4705 37.5137C32.4705 37.7017 32.3958 37.882 32.2629 38.0149C32.1299 38.1479 31.9496 38.2226 31.7616 38.2226Z" fill="#70ABCD"/>
<path d="M28.3026 53.6763C28.1146 53.6763 27.9343 53.6016 27.8014 53.4686C27.6684 53.3357 27.5938 53.1554 27.5938 52.9674C27.5938 52.7794 27.6684 52.5991 27.8014 52.4661C27.9343 52.3332 28.1146 52.2585 28.3026 52.2585C28.5736 52.2594 28.8413 52.2001 29.0865 52.0848C29.3317 51.9696 29.5482 51.8013 29.7204 51.5921C31.4643 49.6498 31.2658 44.1063 31.039 42.1215C31.0183 41.9334 31.0731 41.7449 31.1914 41.5974C31.3098 41.4498 31.4818 41.3553 31.6698 41.3346C31.8578 41.3139 32.0464 41.3688 32.194 41.4871C32.3415 41.6054 32.4361 41.7775 32.4567 41.9655C32.4567 42.2774 33.2932 49.7207 30.7837 52.5421C30.4791 52.9021 30.0988 53.1904 29.67 53.3864C29.2411 53.5825 28.7742 53.6814 28.3026 53.6763V53.6763Z" fill="#70ABCD"/>
<path d="M35.3488 51.6633C35.1618 51.6606 34.9835 51.5842 34.8526 51.4506L31.4216 48.0054C31.3551 47.9395 31.3024 47.8611 31.2664 47.7747C31.2304 47.6884 31.2119 47.5957 31.2119 47.5022C31.2119 47.4086 31.2304 47.3159 31.2664 47.2295C31.3024 47.1432 31.3551 47.0647 31.4216 46.9988C31.5565 46.8681 31.737 46.7949 31.9249 46.7949C32.1128 46.7949 32.2933 46.8681 32.4282 46.9988L35.8734 50.444C36.0042 50.5789 36.0773 50.7594 36.0773 50.9473C36.0773 51.1352 36.0042 51.3157 35.8734 51.4506C35.8048 51.5195 35.7229 51.5739 35.6328 51.6104C35.5426 51.647 35.446 51.665 35.3488 51.6633V51.6633Z" fill="#70ABCD"/>
<path d="M18.6617 47.098C18.569 47.0975 18.4774 47.0784 18.3921 47.0418C18.3069 47.0053 18.2298 46.9521 18.1655 46.8853C15.8545 44.5885 17.9528 40.5763 18.0379 40.4061C18.0777 40.3175 18.1353 40.2379 18.2072 40.1724C18.279 40.107 18.3635 40.057 18.4555 40.0256C18.5474 39.9942 18.6449 39.982 18.7418 39.9899C18.8386 39.9977 18.9329 40.0254 19.0186 40.0712C19.1043 40.1169 19.1797 40.1798 19.2401 40.256C19.3005 40.3321 19.3445 40.4199 19.3696 40.5138C19.3946 40.6077 19.4001 40.7058 19.3856 40.8019C19.3712 40.898 19.3371 40.9901 19.2856 41.0725C19.2856 41.0725 17.5984 44.3192 19.1721 45.8929C19.302 46.0254 19.3748 46.2036 19.3748 46.3891C19.3748 46.5747 19.302 46.7528 19.1721 46.8853C19.0369 47.021 18.8533 47.0975 18.6617 47.098Z" fill="#70ABCD"/>
<path d="M39.9283 48.218C39.8444 48.2379 39.757 48.2379 39.6731 48.218C39.5852 48.185 39.5048 48.1349 39.4364 48.0706C39.368 48.0062 39.3131 47.9289 39.2749 47.8432C39.2366 47.7575 39.2158 47.665 39.2136 47.5711C39.2114 47.4773 39.2278 47.3839 39.2619 47.2965C40.6797 43.7379 40.382 37.2303 40.382 37.1736C40.3762 37.0805 40.3889 36.9871 40.4193 36.8989C40.4497 36.8107 40.4972 36.7293 40.5591 36.6595C40.621 36.5897 40.6962 36.5328 40.7801 36.4921C40.864 36.4514 40.9552 36.4276 41.0484 36.4222C41.1426 36.4165 41.2371 36.4296 41.3262 36.4609C41.4153 36.4922 41.4973 36.541 41.5673 36.6044C41.6373 36.6678 41.6939 36.7445 41.7338 36.8301C41.7737 36.9157 41.7962 37.0083 41.7998 37.1027C41.7998 37.3863 42.0975 43.9789 40.5805 47.821C40.5239 47.9448 40.4316 48.0489 40.3153 48.1196C40.1991 48.1904 40.0642 48.2246 39.9283 48.218V48.218Z" fill="#70ABCD"/>
<path d="M28.3028 37.7832C28.1552 37.7803 28.0122 37.7313 27.8938 37.6432C27.7753 37.5552 27.6873 37.4323 27.6421 37.2918C27.5968 37.1513 27.5965 37.0002 27.6413 36.8596C27.686 36.7189 27.7735 36.5957 27.8917 36.5072L31.4928 33.9268C31.6469 33.8178 31.8381 33.7745 32.0243 33.8064C32.2104 33.8383 32.3762 33.9428 32.4852 34.097C32.5943 34.2511 32.6376 34.4423 32.6057 34.6284C32.5738 34.8145 32.4693 34.9804 32.3151 35.0894L28.7139 37.6556C28.5926 37.7381 28.4495 37.7825 28.3028 37.7832V37.7832Z" fill="#70ABCD"/>
<path d="M44.4367 6.05351H41.0199C40.8319 6.05351 40.6516 5.97882 40.5187 5.84587C40.3857 5.71293 40.311 5.53264 40.311 5.34463C40.311 5.15662 40.3857 4.97632 40.5187 4.84338C40.6516 4.71044 40.8319 4.63574 41.0199 4.63574H44.4367C44.6248 4.63574 44.8051 4.71044 44.938 4.84338C45.0709 4.97632 45.1456 5.15662 45.1456 5.34463C45.1456 5.53264 45.0709 5.71293 44.938 5.84587C44.8051 5.97882 44.6248 6.05351 44.4367 6.05351Z" fill="#70ABCD"/>
</g>
<defs>
<clipPath id="clip0">
<rect width="44.759" height="60" fill="white" transform="translate(0.5 -0.000488281)"/>
</clipPath>
</defs>
</svg>
