<svg width="61" height="58" viewBox="0 0 61 58" fill="none" xmlns="http://www.w3.org/2000/svg">
<g clip-path="url(#clip0)">
<path d="M59.7758 37.8723L52.3742 36.0217C48.4057 35.0326 45.4766 31.5866 45.0986 27.4707L44.1537 17.2924C47.2718 14.7717 49.4766 11.1982 50.327 7.24174C50.327 7.20983 50.327 7.17792 50.327 7.17792L51.1144 1.11563C51.1774 0.573212 50.8309 0.0946094 50.2955 0.0307958C49.76 -0.0330178 49.2876 0.317957 49.2246 0.860373L48.4372 6.85885C47.6498 10.4324 45.6655 13.6231 42.8624 15.8566L41.2246 17.1648C38.5789 19.2706 35.3663 20.4512 31.9963 20.5469C28.6262 20.6426 25.3821 19.6216 22.6104 17.6434L19.9333 15.7289C16.7837 13.4636 14.5789 10.1133 13.7285 6.28453L13.0356 0.860373C12.9411 0.317957 12.4687 -0.0649247 11.9333 -0.00111104C11.3978 0.0627026 11.0514 0.541305 11.1144 1.08372L11.8073 6.53979C11.8073 6.57169 11.8073 6.6036 11.8073 6.63551C12.7522 10.9748 15.2088 14.7398 18.7994 17.2924L19.1774 17.5476L18.5474 27.2473C18.264 31.4909 15.3663 35.0326 11.3033 36.0855L1.2246 38.6699C0.720663 38.7976 0.405702 39.34 0.531687 39.8505C0.626175 40.2972 1.03562 40.5844 1.44507 40.5844C1.50806 40.5844 1.60255 40.5844 1.66554 40.5524L11.7443 37.968C16.6262 36.7236 20.1222 32.48 20.4372 27.3749L20.9726 18.8558L21.4451 19.2068C24.4372 21.3445 27.9018 22.4613 31.5238 22.4613C31.6813 22.4613 31.8388 22.4613 31.9648 22.4613C35.7443 22.3656 39.3348 21.0574 42.327 18.6963L43.1459 27.6302C43.6183 32.5757 47.1144 36.6917 51.8703 37.9042L59.2718 39.7548C59.3348 39.7867 59.4293 39.7867 59.4923 39.7867C59.9333 39.7867 60.3112 39.4995 60.4372 39.0528C60.6262 38.5423 60.3112 37.9999 59.7758 37.8723Z" fill="#70ABCD"/>
<path d="M39.6181 30.2471C39.1457 29.3857 38.2953 28.8752 37.3189 28.9071C37.0039 28.9071 36.6575 28.9709 36.374 29.0985L36.752 26.9288C36.8465 26.3864 36.5 25.9078 35.9646 25.8121C35.4291 25.7164 34.9567 26.0674 34.8622 26.6098L33.8543 32.3849C33.8543 32.4168 33.8543 32.4487 33.8543 32.4806L33.1929 33.6931C33.0984 33.8845 32.9095 34.0121 32.689 34.0121H31.3662C31.1457 34.0121 30.9567 33.8845 30.8622 33.6931L30.2638 32.5763C30.2638 32.5125 30.2638 32.4487 30.2638 32.3849L29.2559 26.6098C29.1614 26.0674 28.6575 25.7164 28.1536 25.8121C27.6181 25.9078 27.2717 26.4183 27.3662 26.9288L27.7441 29.0985C27.4291 28.9709 27.1142 28.9071 26.7677 28.9071C26.7677 28.9071 26.7677 28.9071 26.7362 28.9071C25.7599 28.9071 24.9095 29.4176 24.437 30.2471C22.9882 32.8316 21.8228 37.139 24.4055 42.8822C24.8465 43.8394 25.7599 44.4457 26.7992 44.4457C27.3032 44.4457 27.7756 44.3181 28.185 44.0628V56.315C28.185 56.8574 28.626 57.2722 29.1299 57.2722C29.6339 57.2722 30.0748 56.8255 30.0748 56.315V54.7516H33.7913V56.315C33.7913 56.8574 34.2323 57.2722 34.7362 57.2722C35.2717 57.2722 35.6811 56.8255 35.6811 56.315V43.9671C36.1221 44.2861 36.626 44.4457 37.1929 44.4457C38.2323 44.4457 39.1457 43.8394 39.5866 42.8822C42.2323 37.139 41.0669 32.8635 39.6181 30.2471ZM30.1063 45.1795H33.8228V48.0192H30.1063V45.1795ZM33.8228 40.6488V43.2332H30.1063V40.8721L30.9252 39.0534C31.0197 38.8301 31.2402 38.7025 31.4606 38.7025H32.626C32.8465 38.7025 33.0669 38.8301 33.1614 39.0534L33.8228 40.553C33.8228 40.6169 33.8228 40.6169 33.8228 40.6488ZM30.1063 52.8053V49.9656H33.8228V52.8053H30.1063ZM37.8858 42.0846C37.6969 42.4675 37.3819 42.4994 37.2244 42.4994C37.0984 42.4994 36.752 42.4675 36.563 42.0846L34.8622 38.2558C34.4528 37.3624 33.5709 36.7561 32.5945 36.7561H31.4291C30.4528 36.7561 29.5394 37.3305 29.1614 38.2558L28.3425 40.1383C28.311 40.2021 28.2795 40.2659 28.248 40.3297L27.4606 42.0846C27.3032 42.4675 26.9567 42.4994 26.7992 42.4994C26.6732 42.4994 26.3268 42.4675 26.1378 42.0846C23.8701 37.0752 24.878 33.4059 26.0748 31.2044C26.2638 30.8853 26.5787 30.8534 26.7047 30.8215C26.8307 30.8215 27.1457 30.8534 27.3347 31.2044L29.1614 34.5865C29.6024 35.3841 30.4528 35.8947 31.3662 35.8947H32.6575C33.5709 35.8947 34.4213 35.3841 34.8622 34.5865L36.689 31.2044C36.878 30.8534 37.1929 30.8215 37.3189 30.8215C37.4449 30.8215 37.7599 30.8534 37.9488 31.2044C39.1772 33.4059 40.1536 37.0752 37.8858 42.0846Z" fill="#70ABCD"/>
</g>
<defs>
<clipPath id="clip0">
<rect width="60" height="57.2727" fill="white" transform="translate(0.5 -0.000488281)"/>
</clipPath>
</defs>
</svg>
