<svg width="61" height="60" viewBox="0 0 61 60" fill="none" xmlns="http://www.w3.org/2000/svg">
<path d="M58.6251 13.1245C58.6251 6.92119 53.9989 1.87451 48.3126 1.87451C45.8152 1.87451 43.4532 2.83545 41.5825 4.5983C39.6365 3.42689 36.017 1.87451 30.5001 1.87451C24.9831 1.87451 21.3637 3.42689 19.4175 4.5983C17.5471 2.83604 15.1851 1.87451 12.6876 1.87451C7.00129 1.87451 2.37508 6.92119 2.37508 13.1245C2.36558 15.6872 3.1821 18.1847 4.7036 20.2468L4.72938 20.2275C4.89895 21.6372 5.54502 22.9467 6.56055 23.939C8.75371 26.1323 12.0249 26.4296 13.8525 24.602C13.9826 24.4713 14.1034 24.3315 14.2138 24.1838C15.6372 23.8638 17.1231 23.2051 17.9968 22.7776C18.3966 23.3772 18.9759 24.2461 19.4076 24.894C21.4906 28.0185 21.0407 31.1245 20.5199 34.7211C20.1714 37.128 19.8111 39.617 20.1971 42.319C20.5782 44.9872 21.1268 46.3659 21.6109 47.5823C22.3564 49.4559 23.0001 51.0736 23.0001 57.187C23.0001 57.4357 23.0989 57.6741 23.2747 57.8499C23.4505 58.0257 23.6889 58.1245 23.9376 58.1245H37.0626C37.3112 58.1245 37.5497 58.0257 37.7255 57.8499C37.9013 57.6741 38.0001 57.4357 38.0001 57.187C38.0001 51.0736 38.6438 49.4559 39.3892 47.5829C39.8733 46.3665 40.422 44.9878 40.8031 42.3196C41.1891 39.6176 40.8288 37.1281 40.4802 34.7217C39.9595 31.1251 39.5096 28.0186 41.5928 24.8944C42.0243 24.2465 42.6036 23.3778 43.0034 22.7782C43.8772 23.2052 45.3636 23.8643 46.7865 24.1844C46.8969 24.3321 47.0176 24.4718 47.1476 24.6024C48.9757 26.4306 52.2465 26.1328 54.4396 23.9395C55.4552 22.9472 56.1012 21.6377 56.2708 20.2279L56.2966 20.2473C57.8182 18.185 58.6347 15.6873 58.6251 13.1245V13.1245ZM40.3117 6.02635C40.0086 6.43199 39.733 6.85756 39.487 7.30018C33.704 5.06596 27.2962 5.06596 21.5132 7.30018C21.2671 6.85757 20.9916 6.43201 20.6884 6.02635C22.4962 5.00166 25.6907 3.74951 30.5001 3.74951C35.3095 3.74951 38.504 5.00166 40.3117 6.02635ZM12.5266 23.2763C11.43 24.373 9.34832 24.0757 7.88594 22.6135C6.42356 21.1514 6.12649 19.0697 7.22313 17.9729C8.31977 16.8762 10.4014 17.1736 11.8638 18.6357C13.3261 20.0979 13.6233 22.1796 12.5267 23.2761L12.5266 23.2763ZM8.43157 15.4752C8.14493 14.7247 7.99868 13.9279 8.00008 13.1245C8.00008 10.0229 10.1029 7.49951 12.6876 7.49951C15.0216 7.49951 16.9621 9.55732 17.3165 12.2403C16.8923 13.6031 16.6112 15.0063 16.4777 16.4273C15.9372 17.3499 15.1096 18.0702 14.1213 18.4781C13.8554 18.0551 13.5428 17.6633 13.1894 17.3101C11.8195 15.9397 10.0284 15.3096 8.43157 15.4752ZM14.8701 20.1971C15.4814 19.9474 16.0501 19.6041 16.5558 19.1795C16.6575 19.8497 16.8348 20.5062 17.0842 21.1365C16.416 21.4617 15.7302 21.7495 15.0299 21.9983C15.0803 21.3932 15.0263 20.7839 14.8701 20.1971ZM23.3531 46.8896C22.8858 45.7156 22.4028 44.5018 22.0531 42.0545C21.7053 39.6194 22.0461 37.2662 22.3756 34.9904C22.9029 31.3459 23.4491 27.5768 20.9678 23.8547C20.3116 22.869 19.3129 21.3723 19.1242 21.089C18.1032 19.1504 18.0398 16.6858 18.938 13.3882C20.3694 13.9304 21.7229 14.6594 22.9633 15.5562C26.0981 17.8547 27.6876 20.8214 27.6876 24.3745V33.3069C27.6894 33.8296 27.5447 34.3423 27.2699 34.7869C26.9951 35.2316 26.6012 35.5903 26.1329 35.8224L24.4558 36.661C24.2744 36.7517 24.1273 36.8988 24.0366 37.0802C23.9213 37.3107 22.9679 39.4744 24.9421 44.4102C26.3695 47.9784 26.67 53.9536 26.7333 56.2495H24.87C24.801 50.5283 24.0966 48.7581 23.3531 46.8896ZM40.0326 23.8544C37.551 27.5768 38.0968 31.3456 38.6246 34.9904C38.9541 37.2662 39.2949 39.6193 38.9471 42.0545C38.5974 44.5018 38.1143 45.7156 37.6471 46.8896C36.9036 48.7581 36.1991 50.5283 36.1306 56.2495H34.2667C34.3295 53.9544 34.6293 47.9819 36.0581 44.4102C38.0323 39.4744 37.0789 37.3107 36.9636 37.0802C36.8729 36.8988 36.7258 36.7517 36.5444 36.661L34.8673 35.8224C34.399 35.5903 34.0051 35.2316 33.7303 34.7869C33.4555 34.3423 33.3108 33.8296 33.3126 33.3069V24.3745C33.3126 20.8214 34.9021 17.8547 38.0369 15.5567C39.2773 14.66 40.6308 13.931 42.0622 13.3888C42.9606 16.6868 42.8971 19.1509 41.8759 21.0896C41.6873 21.3722 40.6892 22.8689 40.0326 23.8544ZM43.9161 21.1357C44.1649 20.5065 44.3418 19.8511 44.4434 19.1822C44.9493 19.606 45.5181 19.9485 46.1294 20.1974C45.9735 20.7838 45.9195 21.3927 45.9698 21.9975C45.2698 21.7484 44.5842 21.4608 43.9161 21.1359V21.1357ZM46.8784 18.4781C45.8897 18.0704 45.062 17.3496 44.5223 16.4263C44.3887 15.0056 44.1075 13.6026 43.6834 12.2401C44.0381 9.55732 45.9786 7.49951 48.3126 7.49951C50.8973 7.49951 53.0001 10.0229 53.0001 13.1245C53.0015 13.9279 52.8552 14.7247 52.5686 15.4752C50.9718 15.3096 49.1807 15.9397 47.8108 17.31C47.4572 17.6632 47.1444 18.0552 46.8784 18.4783V18.4781ZM53.1139 22.6131C51.6517 24.0752 49.57 24.3725 48.4732 23.2759C47.3765 22.1792 47.674 20.0976 49.1361 18.6353C50.5981 17.1729 52.6799 16.8758 53.7767 17.9724C54.8734 19.0691 54.576 21.1512 53.1139 22.6133V22.6131ZM54.3537 16.0602C54.7 15.1202 54.8765 14.1262 54.8751 13.1245C54.8751 8.98896 51.9311 5.62451 48.3126 5.62451C45.1989 5.62451 42.5866 8.1165 41.9178 11.4465C40.1558 12.0548 38.4922 12.9174 36.9799 14.0069C33.3541 16.6439 31.4376 20.229 31.4376 24.3745V33.3069C31.4347 34.178 31.6759 35.0326 32.1338 35.7736C32.5918 36.5146 33.2482 37.1125 34.0287 37.4995L35.3449 38.1575C35.4678 38.777 35.597 40.5142 34.3171 43.7138C32.7515 47.6279 32.4479 53.883 32.3891 56.2495H28.611C28.5524 53.883 28.2487 47.6279 26.6831 43.7138C25.4031 40.5146 25.5324 38.777 25.6553 38.1575L26.9715 37.4995C27.7519 37.1125 28.4084 36.5146 28.8663 35.7736C29.3243 35.0326 29.5655 34.178 29.5626 33.3069V24.3745C29.5626 20.229 27.6461 16.6439 24.0203 14.0069C22.5079 12.9174 20.8444 12.0548 19.0824 11.4465C18.4136 8.1165 15.8013 5.62451 12.6876 5.62451C9.06907 5.62451 6.12508 8.98896 6.12508 13.1245C6.12359 14.1263 6.30016 15.1204 6.64657 16.0604C6.05717 16.416 5.57174 16.9205 5.23903 17.5231C4.58631 16.1487 4.24846 14.646 4.25008 13.1245C4.25008 7.95514 8.03524 3.74951 12.6876 3.74951C14.9086 3.74951 17.0061 4.70166 18.5938 6.43053C19.2587 7.15763 19.8053 7.98461 20.2136 8.88127C20.3152 9.10308 20.4992 9.27655 20.7267 9.36484C20.9541 9.45313 21.207 9.44929 21.4316 9.35412C24.2986 8.13038 27.3835 7.49951 30.5007 7.49951C33.6178 7.49951 36.7028 8.13038 39.5697 9.35412C39.7943 9.44929 40.0472 9.45313 40.2747 9.36484C40.5021 9.27655 40.6861 9.10308 40.7877 8.88127C41.1957 7.98477 41.7419 7.15787 42.4063 6.43076C43.9941 4.70166 46.0915 3.74951 48.3126 3.74951C52.9649 3.74951 56.7501 7.95514 56.7501 13.1245C56.7517 14.646 56.4139 16.1487 55.7611 17.5231C55.4284 16.9206 54.943 16.4161 54.3537 16.0604V16.0602Z" fill="#70ABCD"/>
</svg>
