<svg width="61" height="60" viewBox="0 0 61 60" fill="none" xmlns="http://www.w3.org/2000/svg">
<g clip-path="url(#clip0)">
<path d="M50.045 5.96144C42.165 -0.238557 35.375 -1.37556 23.145 1.44644C19.823 2.21244 16.064 3.38144 13.355 6.24644C11.5909 8.1326 10.2299 10.3586 9.35502 12.7884C8.98362 13.8584 8.68101 14.9509 8.44902 16.0594L8.37002 16.4054C8.1484 17.2127 7.85247 17.9978 7.48602 18.7504C6.95367 19.6611 6.67019 20.6957 6.66402 21.7504C6.86623 22.6435 7.3826 23.4342 8.11902 23.9784C8.60802 24.4274 8.93002 24.7434 8.93302 25.0314C8.89036 25.1939 8.82541 25.3498 8.74002 25.4944C8.58014 25.7784 8.46512 26.0854 8.39902 26.4044C8.26235 27.6037 7.77226 28.7353 6.99102 29.6554C3.85002 33.0394 2.95302 34.2064 3.06302 35.4144C3.2343 36.2539 3.76802 36.9747 4.52102 37.3834C4.8507 37.6138 5.19889 37.8165 5.56202 37.9894C5.99202 38.2094 6.71302 38.5774 6.76202 38.8404C6.82725 39.1793 6.78856 39.53 6.65102 39.8464C6.50402 40.1604 6.35102 40.4304 6.21802 40.6664C5.82802 41.3564 5.24002 42.3994 6.16202 43.1774C6.37802 43.3684 6.74802 43.6594 7.08502 43.9174C6.83417 44.357 6.72226 44.8621 6.76402 45.3664C6.81669 45.7577 7.02923 46.1097 7.35102 46.3384C7.57402 46.4974 7.81202 46.6384 8.05102 46.7714C8.63702 47.1064 8.86502 47.2624 8.94402 47.5714C9.01648 47.9456 8.98748 48.3323 8.86002 48.6914C8.52857 49.8668 8.58503 51.1177 9.02102 52.2584C9.53456 54.1584 11.4479 55.3218 13.371 54.9034C16.2189 54.2151 19.0274 53.3729 21.784 52.3804C23.164 53.2034 24.476 55.2034 25.422 57.9544C25.8352 59.1733 26.9771 59.9949 28.264 59.9994H48.43C49.4683 59.9987 50.4323 59.4612 50.9788 58.5784C51.5252 57.6956 51.5764 56.593 51.114 55.6634C49.8652 52.8855 49.0879 49.9189 48.814 46.8854C48.4592 43.8946 48.9079 40.8632 50.114 38.1034C50.8331 36.6103 51.7198 35.2039 52.757 33.9114C54.735 31.2384 56.977 28.2114 57.05 23.0564C57.1096 20.1898 56.7584 17.3295 56.007 14.5624C55.0004 11.127 52.9088 8.10961 50.045 5.96144V5.96144ZM51.151 32.7214C50.023 34.1349 49.0608 35.6729 48.283 37.3054C46.9336 40.3912 46.431 43.7809 46.827 47.1254C47.1268 50.3897 47.9718 53.5807 49.327 56.5654C49.476 56.8747 49.456 57.2387 49.2739 57.5298C49.0919 57.8208 48.7733 57.9981 48.43 57.9994H28.264C27.8315 57.9957 27.4491 57.7177 27.312 57.3074C26.6607 55.1846 25.5384 53.2361 24.029 51.6074L24.776 51.3454C25.515 51.0854 26.076 50.8894 26.352 50.8014C30.63 49.4554 32.77 47.5014 32.711 45.0094C32.7122 44.742 32.6032 44.4858 32.4097 44.3012C32.2162 44.1165 31.9551 44.0197 31.688 44.0334C31.4228 44.0395 31.1708 44.1507 30.9876 44.3425C30.8043 44.5344 30.7049 44.7912 30.711 45.0564C30.735 46.0874 29.895 47.5904 25.749 48.8944C25.457 48.9864 24.879 49.1894 24.113 49.4584C23.396 49.7104 22.513 50.0224 21.538 50.3584H21.53C18.7235 51.3769 15.864 52.2429 12.964 52.9524C12.029 53.1336 11.1191 52.5394 10.909 51.6104C10.5968 50.8288 10.5615 49.9639 10.809 49.1594C11.0156 48.4871 11.0421 47.7723 10.886 47.0864C10.5996 46.1693 9.92836 45.4221 9.04702 45.0394C8.97502 44.9984 8.90302 44.9584 8.83202 44.9164C8.93845 44.6968 9.06677 44.4884 9.21502 44.2944C9.38073 44.0821 9.45379 43.8119 9.41765 43.545C9.38151 43.2781 9.23923 43.0371 9.02302 42.8764C8.78302 42.6984 8.21302 42.2694 7.80302 41.9414C7.85402 41.8474 7.91102 41.7414 7.96402 41.6514C8.11702 41.3804 8.29302 41.0664 8.46402 40.7084C8.783 40.0093 8.877 39.2283 8.73302 38.4734C8.50002 37.2464 7.33302 36.6494 6.47802 36.2124C6.21599 36.0886 5.96332 35.9459 5.72202 35.7854C5.48768 35.6226 5.26665 35.4413 5.06102 35.2434C5.07802 34.6654 7.27802 32.2924 8.46102 31.0174C9.51185 29.8134 10.1784 28.3224 10.375 26.7364C10.4175 26.6212 10.4683 26.5093 10.527 26.4014C10.7767 25.9789 10.9173 25.5009 10.936 25.0104C10.8358 24.0001 10.3006 23.0834 9.47002 22.4994C9.07002 22.1294 8.68602 21.7794 8.64302 21.4714C8.76436 20.805 8.98978 20.1618 9.31102 19.5654C9.72961 18.6962 10.0645 17.7891 10.311 16.8564L10.392 16.5074C10.606 15.481 10.8842 14.469 11.225 13.4774C12.0081 11.3021 13.2259 9.30901 14.804 7.61944C17.141 5.14644 20.404 4.12644 23.589 3.39244C36.636 0.384443 42.318 2.42844 48.811 7.53544C51.3501 9.41447 53.2028 12.0744 54.085 15.1074C54.7836 17.6878 55.1092 20.3548 55.052 23.0274C54.989 27.5364 53.125 30.0554 51.151 32.7214V32.7214Z" fill="#70ABCD"/>
<path d="M43.1338 16.7793C44.5765 18.311 46.9342 18.5282 48.6325 17.286C50.3308 16.0437 50.8379 13.731 49.8152 11.8921C48.7924 10.0532 46.5602 9.26408 44.6089 10.0516C42.6577 10.8391 41.5986 12.9567 42.1388 14.9903C40.9059 16.0596 39.8992 17.3645 39.1778 18.8283C38.538 18.349 37.8422 17.9494 37.1058 17.6383C36.2588 16.0263 36.4118 13.8213 36.7998 11.9793C36.8678 11.9793 36.9318 11.9993 36.9998 11.9993C39.0116 12.0152 40.7273 10.5457 41.0207 8.5553C41.314 6.56491 40.0952 4.66288 38.1643 4.09777C36.2334 3.53265 34.1814 4.47741 33.3553 6.31187C32.5292 8.14633 33.1819 10.309 34.8848 11.3803C34.4536 13.1316 34.3855 14.9527 34.6848 16.7313C33.8348 16.4646 32.9015 16.2153 31.8848 15.9833C30.9648 15.7763 30.0898 15.6003 29.2668 15.4513C28.4268 14.7176 27.794 13.7762 27.4318 12.7213C29.3169 12.0029 30.3748 9.99591 29.9022 8.03472C29.4295 6.07353 27.5735 4.76877 25.5681 4.98794C23.5627 5.20711 22.0323 6.88196 21.9945 8.89895C21.9566 10.9159 23.4231 12.647 25.4188 12.9413C25.6197 13.6442 25.9051 14.3202 26.2688 14.9543C24.2908 14.6643 22.4248 14.4543 20.9238 14.3113C20.5854 12.3167 18.8162 10.8852 16.7949 10.9706C14.7736 11.056 13.1314 12.6317 12.9624 14.6477C12.7935 16.6637 14.1506 18.4907 16.1295 18.9113C18.1084 19.3319 20.0912 18.2148 20.7568 16.3043C22.8868 16.5043 25.7568 16.8443 28.6208 17.3643L28.7808 17.3943C27.7714 18.1976 26.8768 19.1353 26.1218 20.1813C25.7586 20.0667 25.3807 20.0054 24.9998 19.9993C23.0874 19.9923 21.4354 21.3352 21.0517 23.2088C20.6681 25.0824 21.6591 26.9665 23.4204 27.7118C25.1817 28.4572 27.2242 27.8567 28.3019 26.2768C29.3796 24.697 29.1934 22.5762 27.8568 21.2083C28.6886 20.0422 29.7538 19.0618 30.9848 18.3293C31.2224 18.2006 31.4694 18.0903 31.7238 17.9993C33.1373 18.314 34.5242 18.7383 35.8718 19.2683C35.9027 19.2856 35.9344 19.3013 35.9668 19.3153L35.9838 19.3233L35.9998 19.3313C36.8447 19.6393 37.6232 20.1052 38.2938 20.7043C38.4171 20.8272 38.5234 20.9662 38.6098 21.1173C39.0698 21.8923 38.9688 23.0413 38.2898 24.7383C37.9188 25.6743 37.4308 26.6493 36.9138 27.6813C35.1498 31.2023 33.1518 35.1933 36.3748 37.7813C40.1358 40.7903 40.2688 51.1813 40.0028 54.9293C39.9836 55.194 40.0703 55.4556 40.244 55.6563C40.4177 55.857 40.6641 55.9804 40.9288 55.9993H40.9998C41.5255 56.0006 41.9625 55.5947 41.9998 55.0703C42.0428 54.4773 42.9768 40.4973 37.6288 36.2193C35.8038 34.7563 36.8698 32.2443 38.7048 28.5793C39.1508 27.6903 39.5948 26.7793 39.9708 25.8893C40.9741 25.646 42.0312 25.9501 42.7518 26.6893C41.558 28.3521 41.7872 30.6432 43.2867 32.0366C44.7862 33.4299 47.0879 33.4906 48.6587 32.1782C50.2296 30.8658 50.5792 28.59 49.4747 26.8666C48.3702 25.1432 46.1564 24.5103 44.3078 25.3893C43.335 24.4414 42.0545 23.8737 40.6988 23.7893C40.9923 22.7376 40.9457 21.62 40.5658 20.5963C41.1399 19.1555 42.0155 17.854 43.1338 16.7793V16.7793ZM45.9998 11.9993C47.1044 11.9993 47.9998 12.8947 47.9998 13.9993C47.9998 15.1039 47.1044 15.9993 45.9998 15.9993C44.8952 15.9993 43.9998 15.1039 43.9998 13.9993C43.9998 12.8947 44.8952 11.9993 45.9998 11.9993ZM36.9998 5.99931C38.1044 5.99931 38.9998 6.89474 38.9998 7.99931C38.9998 9.10388 38.1044 9.99931 36.9998 9.99931C35.8952 9.99931 34.9998 9.10388 34.9998 7.99931C34.9998 6.89474 35.8952 5.99931 36.9998 5.99931ZM23.9998 8.99931C23.9998 7.89474 24.8953 6.99931 25.9998 6.99931C27.1044 6.99931 27.9998 7.89474 27.9998 8.99931C27.9998 10.1039 27.1044 10.9993 25.9998 10.9993C24.8953 10.9993 23.9998 10.1039 23.9998 8.99931ZM16.9998 16.9993C15.8953 16.9993 14.9998 16.1039 14.9998 14.9993C14.9998 13.8947 15.8953 12.9993 16.9998 12.9993C18.1044 12.9993 18.9998 13.8947 18.9998 14.9993C18.9998 16.1039 18.1044 16.9993 16.9998 16.9993ZM24.9998 25.9993C23.8953 25.9993 22.9998 25.1039 22.9998 23.9993C22.9998 22.8947 23.8953 21.9993 24.9998 21.9993C26.1044 21.9993 26.9998 22.8947 26.9998 23.9993C26.9998 25.1039 26.1044 25.9993 24.9998 25.9993ZM47.9998 28.9993C47.9998 30.1039 47.1044 30.9993 45.9998 30.9993C44.8952 30.9993 43.9998 30.1039 43.9998 28.9993C43.9998 27.8947 44.8952 26.9993 45.9998 26.9993C47.1044 26.9993 47.9998 27.8947 47.9998 28.9993Z" fill="#70ABCD"/>
</g>
<defs>
<clipPath id="clip0">
<rect width="60" height="60" fill="white" transform="translate(0.5 -0.000488281)"/>
</clipPath>
</defs>
</svg>
