<svg width="57" height="60" viewBox="0 0 57 60" fill="none" xmlns="http://www.w3.org/2000/svg">
<g clip-path="url(#clip0)">
<path d="M55.6452 -0.000488281H1.49585C0.966805 -0.000488281 0.5 0.435196 0.5 0.995362V36.8771C0.5 37.4373 0.935685 37.8729 1.49585 37.8729H27.5747V40.7983C27.5747 42.4476 26.2365 43.7858 24.5871 43.7858H5.44813C2.70954 43.7858 0.5 45.9954 0.5 48.7339C0.5 51.4725 2.70954 53.6821 5.44813 53.6821H24.4627V55.2692C24.4627 55.8294 24.8983 56.2651 25.4585 56.2651H37.0041L40.8631 59.346C41.4544 59.8128 42.139 60.0306 42.8236 60.0306C43.2905 60.0306 43.7573 59.9373 44.1929 59.7194C45.2822 59.1904 45.9668 58.1012 45.9668 56.8563V48.7339C45.9668 47.4891 45.2822 46.3999 44.1618 45.8709C43.0726 45.3418 41.7967 45.4974 40.8319 46.2443L36.973 49.2319H25.4585C24.8983 49.2319 24.4627 49.6675 24.4627 50.2277V51.6904H5.44813C3.79875 51.6904 2.46058 50.3522 2.46058 48.7028C2.46058 47.0534 3.79875 45.7153 5.44813 45.7153H24.6183C27.3568 45.7153 29.5664 43.5057 29.5664 40.7671V37.8418H55.6452C56.2054 37.8418 56.6411 37.4061 56.6411 36.846V0.995362C56.6411 0.435196 56.1743 -0.000488281 55.6452 -0.000488281ZM43.3838 47.6447C43.7884 47.8315 44.0685 48.236 44.0685 48.7028V56.8252C44.0685 57.292 43.8195 57.6966 43.4149 57.8833C43.1971 57.9767 42.9793 58.0078 42.7614 58.0078V47.5202C42.9481 47.5202 43.166 47.5514 43.3838 47.6447ZM26.4544 51.2236H37.3465C37.5643 51.2236 37.7822 51.1613 37.9378 51.0057L41.361 48.3605V57.1987L37.9378 54.4912C37.751 54.3667 37.5332 54.2734 37.3154 54.2734H26.4232V51.2236H26.4544ZM54.6494 35.8812H2.4917V1.99121H54.6494V35.8812Z" fill="#70ABCD"/>
<path d="M14.7527 28.848C18.8295 31.6489 23.622 33.1115 28.5702 33.1115C38.3731 33.1115 47.2112 27.292 51.0702 18.2671C51.2569 17.8314 51.1324 17.3646 50.759 17.0846L34.5453 5.13435C34.1096 4.82315 33.4872 4.91651 33.1449 5.35219C32.0556 6.81485 30.4063 7.6551 28.5702 7.6551C26.7341 7.6551 25.0225 6.75261 23.9332 5.25883C23.622 4.82315 22.9996 4.69867 22.5639 5.04099L6.25689 16.68C5.88345 16.9601 5.72785 17.4269 5.91457 17.8626C7.71955 22.3128 10.7693 26.1095 14.7527 28.848ZM22.9685 7.18829C24.4 8.74431 26.454 9.6468 28.5702 9.6468C30.6552 9.6468 32.6469 8.77543 34.1096 7.28165L48.954 18.2049C45.2195 26.0783 37.315 31.1198 28.5702 31.1198C23.9955 31.1198 19.6075 29.7505 15.8731 27.1987C12.4187 24.8335 9.74237 21.597 8.03075 17.8314L22.9685 7.18829Z" fill="#70ABCD"/>
<path d="M21.8798 24.6779C24.0893 26.6073 26.4234 27.572 28.8819 27.572C29.0997 27.572 29.2864 27.572 29.5043 27.5409C34.3902 27.2297 37.8134 23.2152 37.969 23.0285C38.3113 22.6239 38.2802 21.9704 37.8445 21.6281C37.44 21.2857 36.7864 21.3169 36.4441 21.7525C36.413 21.7837 33.4254 25.2691 29.3798 25.5492C27.6993 25.6737 26.0499 25.2069 24.4628 24.1488C24.7117 23.8998 24.8051 23.5264 24.6806 23.153C24.525 22.6239 23.9648 22.3438 23.4358 22.5305C23.0624 22.655 22.6889 22.7173 22.2843 22.7173C20.1993 22.7173 18.5188 21.0368 18.5188 18.9517C18.5188 16.8666 20.1993 15.1862 22.2843 15.1862C24.3694 15.1862 26.0499 16.8666 26.0499 18.9517C26.0499 19.2629 26.0188 19.543 25.9565 19.8542C25.8321 20.3832 26.1433 20.9123 26.6723 21.0368C27.2014 21.1613 27.7304 20.8501 27.8549 20.321C27.9171 20.072 27.9483 19.792 27.9794 19.543C28.7574 19.1384 30.5935 18.4538 32.3985 19.792C33.052 20.2899 33.7678 20.6944 34.4835 21.0057C34.608 21.0679 34.7636 21.099 34.8881 21.099C35.2304 21.099 35.5727 20.9123 35.7595 20.6011L37.44 17.5824L41.3611 20.1032C41.8279 20.3832 42.4503 20.2588 42.7304 19.792C43.0105 19.3252 42.886 18.7027 42.4192 18.4227L37.5956 15.3418C37.3777 15.1862 37.0976 15.155 36.8175 15.2173C36.5686 15.2795 36.3196 15.4662 36.1951 15.6841L34.4524 18.765C34.1412 18.5783 33.8611 18.3915 33.5499 18.1737C31.496 16.6177 29.2864 16.8355 27.7615 17.3957C27.0769 14.9683 24.8673 13.1633 22.2221 13.1633C19.0478 13.1633 16.4648 15.7463 16.4648 18.9206C16.5271 21.9704 18.8922 24.46 21.8798 24.6779Z" fill="#70ABCD"/>
</g>
<defs>
<clipPath id="clip0">
<rect width="56.1411" height="60" fill="white" transform="translate(0.5 -0.000488281)"/>
</clipPath>
</defs>
</svg>
