<svg width="22" height="22" viewBox="0 0 22 22" fill="none" xmlns="http://www.w3.org/2000/svg">
<path d="M16.0448 0H5.95519C2.67144 0 0 2.67144 0 5.95519V16.0449C0 19.3285 2.67144 22 5.95519 22H16.0449C19.3285 22 22 19.3285 22 16.0449V5.95519C22 2.67144 19.3285 0 16.0448 0V0ZM11 17.0154C7.683 17.0154 4.98453 14.317 4.98453 11C4.98453 7.683 7.683 4.98453 11 4.98453C14.317 4.98453 17.0154 7.683 17.0154 11C17.0154 14.317 14.317 17.0154 11 17.0154V17.0154ZM17.1593 6.40317C16.179 6.40317 15.3818 5.6059 15.3818 4.62568C15.3818 3.64546 16.179 2.84802 17.1593 2.84802C18.1395 2.84802 18.9369 3.64546 18.9369 4.62568C18.9369 5.6059 18.1395 6.40317 17.1593 6.40317Z" fill="#70ABCD"/>
<path d="M11.0001 6.27417C8.39448 6.27417 6.27441 8.39407 6.27441 10.9999C6.27441 13.6055 8.39448 15.7256 11.0001 15.7256C13.6059 15.7256 15.7258 13.6055 15.7258 10.9999C15.7258 8.39407 13.6059 6.27417 11.0001 6.27417V6.27417Z" fill="#70ABCD"/>
<path d="M17.1591 4.13794C16.8903 4.13794 16.6714 4.35681 16.6714 4.6257C16.6714 4.89459 16.8903 5.11346 17.1591 5.11346C17.4282 5.11346 17.6471 4.89476 17.6471 4.6257C17.6471 4.35664 17.4282 4.13794 17.1591 4.13794Z" fill="#70ABCD"/>
</svg>
