<svg width="22" height="22" viewBox="0 0 22 22" fill="none" xmlns="http://www.w3.org/2000/svg">
<g clip-path="url(#clip0)">
<path d="M13.7344 13.2284C13.4306 13.5323 12.9697 13.6055 12.5877 13.4107C10.8555 12.5273 9.47296 11.1447 8.58958 9.41254C8.39471 9.03052 8.46789 8.56978 8.77169 8.26598L9.44375 7.59392L8.04173 6.19189L6.90691 7.32688C6.71775 7.51604 6.65145 8.09796 7.08735 9.11495C7.54759 10.1888 8.40814 11.3873 9.51055 12.4897C10.613 13.5921 11.8116 14.4528 12.8853 14.913C13.9024 15.3488 14.4842 15.2825 14.6734 15.0933L15.8082 13.9585L14.4063 12.5565L13.7344 13.2284Z" fill="#70ABCD"/>
<path d="M18.8752 3.1248C16.86 1.10963 14.1814 0 11.3313 0C11.3312 0 11.3305 0 11.3303 0C9.92075 0.000167847 8.54709 0.273087 7.24779 0.811371C5.94832 1.34966 4.78414 2.12796 3.7873 3.1248C1.7723 5.1398 0.662661 7.81897 0.662661 10.6687C0.662661 12.3681 1.07271 14.057 1.84967 15.5617L0.056399 20.6848C-0.0699895 21.0461 0.0194727 21.4389 0.290377 21.7096C0.479876 21.8993 0.729296 22 0.985766 22C1.09571 22 1.20682 21.9815 1.31525 21.9436L6.43827 20.1505C7.94301 20.9275 9.63188 21.3375 11.3313 21.3375C14.181 21.3375 16.86 20.2277 18.8752 18.2127C20.8902 16.1977 22 13.5185 22 10.6688C22 7.81897 20.8904 5.1398 18.8752 3.1248V3.1248ZM16.7427 14.8486L15.5856 16.0057C15.2376 16.3536 14.7583 16.528 14.178 16.528C13.6528 16.528 13.045 16.3852 12.3768 16.0988C11.1558 15.5755 9.81366 14.6178 8.59795 13.4021C7.38224 12.1863 6.4245 10.8442 5.90116 9.62315C5.29842 8.21693 5.33148 7.07726 5.99431 6.41443L7.15145 5.25729C7.64223 4.76651 8.44084 4.76651 8.93163 5.25729L10.3781 6.7038C10.8691 7.19458 10.8691 7.99319 10.3781 8.48415L9.84136 9.02092C10.5678 10.3538 11.6464 11.4322 12.9793 12.1586L13.516 11.6219C14.0068 11.1309 14.8054 11.1309 15.2962 11.6219L16.7427 13.0684C16.9805 13.306 17.1115 13.6223 17.1115 13.9585C17.1115 14.2947 16.9805 14.6107 16.7427 14.8486V14.8486Z" fill="#70ABCD"/>
</g>
<defs>
<clipPath id="clip0">
<rect width="22" height="22" fill="white"/>
</clipPath>
</defs>
</svg>
