<svg width="24" height="24" viewBox="0 0 24 24" fill="none" xmlns="http://www.w3.org/2000/svg">
<g clip-path="url(#clip0)">
<path d="M23.7719 3.03025C23.5371 2.75514 23.1477 2.65312 22.8015 2.77554L0.814207 10.4183C0.374944 10.5719 0.0666177 10.9443 0.00937804 11.3902C-0.047313 11.834 0.156043 12.2646 0.537519 12.5125L3.68039 14.5762C3.98488 14.7762 4.37641 14.7976 4.70248 14.6321L11.52 11.174L6.20662 14.9902C5.95718 15.1695 5.80814 15.4553 5.80814 15.7547V19.2896C5.80814 19.6543 6.01606 19.9883 6.35072 20.1618C6.68593 20.3352 7.09082 20.318 7.4092 20.116L9.79699 18.5925L12.1451 20.1326C12.3508 20.2682 12.5959 20.3396 12.8431 20.3396C12.9267 20.3396 13.0106 20.3313 13.0933 20.3148C13.423 20.2487 13.7147 20.0527 13.8937 19.7772L23.8415 3.99912C24.0352 3.69534 24.0074 3.30659 23.7719 3.03025V3.03025Z" fill="#FF9D39"/>
</g>
<defs>
<clipPath id="clip0">
<rect width="23.9697" height="23.0109" fill="white"/>
</clipPath>
</defs>
</svg>
