<svg width="25" height="24" viewBox="0 0 25 24" fill="none" xmlns="http://www.w3.org/2000/svg">
<path d="M17.5489 0H7.45111C6.48471 0 5.70459 0.783616 5.70459 1.74827V22.2535C5.70459 23.2173 6.48471 24 7.45111 24H17.5489C18.5136 24 19.2954 23.2173 19.2954 22.2535V1.74827C19.2954 0.783616 18.5136 0 17.5489 0ZM10.0084 1.06173H14.9934C15.1194 1.06173 15.2217 1.24976 15.2217 1.4824C15.2217 1.71504 15.1194 1.90394 14.9934 1.90394H10.0084C9.88154 1.90394 9.78097 1.71504 9.78097 1.4824C9.78097 1.24976 9.88154 1.06173 10.0084 1.06173ZM12.5009 22.2745C11.8861 22.2745 11.3858 21.7742 11.3858 21.1585C11.3858 20.5428 11.8861 20.0443 12.5009 20.0443C13.114 20.0443 13.6142 20.5428 13.6142 21.1585C13.6142 21.7742 13.114 22.2745 12.5009 22.2745ZM17.9871 18.4535H7.01382V2.94993H17.9871V18.4535Z" fill="#FFFFFF"/>
</svg>
