<svg width="23" height="22" viewBox="0 0 23 22" fill="none" xmlns="http://www.w3.org/2000/svg">
<g clip-path="url(#clip0)">
<path d="M22.2784 2.73676L19.9806 0.438965L8.53125 10.2575L12.4599 14.1861L22.2784 2.73676Z" fill="white"/>
<path d="M11.9273 14.6613L8.0564 10.79L4.5459 15.8736L6.84369 18.1714L11.9273 14.6613Z" fill="white"/>
<path d="M4.06861 20.862L6.19584 18.1003L4.58989 16.5234L2.09579 18.4049C2.09579 18.4049 1.98781 20.7246 0.506836 22C0.507183 22 2.25351 20.6616 4.06861 20.862ZM3.30315 20.0513C3.03175 20.0513 2.81171 19.8312 2.81171 19.5598C2.81171 19.2885 3.03175 19.0684 3.30315 19.0684C3.57454 19.0684 3.79458 19.2885 3.79458 19.5598C3.79458 19.8312 3.57454 20.0513 3.30315 20.0513Z" fill="white"/>
<path d="M20.3745 0.000353831L22.4942 2.12002C22.5002 -0.0785455 20.3745 0.000353831 20.3745 0.000353831Z" fill="white"/>
</g>
<defs>
<clipPath id="clip0">
<rect width="22" height="22" fill="white" transform="translate(0.5)"/>
</clipPath>
</defs>
</svg>
