<svg width="21" height="20" viewBox="0 0 21 20" fill="none" xmlns="http://www.w3.org/2000/svg">
<g clip-path="url(#clip0)">
<path d="M6.02205 4.55146C5.73361 4.26279 5.26564 4.26279 4.9772 4.55146C3.90626 5.6224 3.3799 7.11428 3.53286 8.64482C3.57103 9.02611 3.89224 9.31033 4.26736 9.31033C4.29201 9.31033 4.31685 9.30908 4.3415 9.30662C4.74767 9.266 5.04396 8.90365 5.00333 8.49775C4.89447 7.41006 5.26591 6.35244 6.02205 5.59627C6.31072 5.30787 6.31072 4.83986 6.02205 4.55146Z" fill="white"/>
<path d="M8.94828 0C4.28988 0 0.5 3.78988 0.5 8.44828C0.5 13.1067 4.28988 16.8966 8.94828 16.8966C13.6067 16.8966 17.3966 13.1067 17.3966 8.44828C17.3966 3.78988 13.6066 0 8.94828 0ZM8.94828 15.4187C5.10469 15.4187 1.97785 12.2919 1.97785 8.44828C1.97785 4.60469 5.10469 1.47785 8.94828 1.47785C12.7916 1.47785 15.9187 4.60469 15.9187 8.44828C15.9187 12.2919 12.7919 15.4187 8.94828 15.4187Z" fill="white"/>
<path d="M20.2837 18.7388L14.9142 13.3693C14.6255 13.0807 14.158 13.0807 13.8693 13.3693C13.5807 13.6578 13.5807 14.1257 13.8693 14.4142L19.2388 19.7836C19.3832 19.928 19.5721 20.0001 19.7612 20.0001C19.9504 20.0001 20.1393 19.928 20.2837 19.7836C20.5723 19.4952 20.5723 19.0272 20.2837 18.7388Z" fill="white"/>
</g>
<defs>
<clipPath id="clip0">
<rect width="20" height="20" fill="white" transform="translate(0.5)"/>
</clipPath>
</defs>
</svg>
