<svg width="34" height="34" viewBox="0 0 34 34" fill="none" xmlns="http://www.w3.org/2000/svg">
<path d="M22.413 33.1147C22.236 33.1745 22.0578 33.2326 21.8784 33.2859C22.0584 33.232 22.236 33.174 22.413 33.1147Z" fill="#F9EDE0"/>
<path d="M23.3014 32.7888C23.1103 32.865 22.9192 32.9401 22.7246 33.0092C22.9192 32.9395 23.1109 32.865 23.3014 32.7888Z" fill="#F9EDE0"/>
<path d="M21.5354 33.3833C21.3619 33.4314 21.1872 33.4771 21.0107 33.5199C21.1872 33.4771 21.3619 33.4314 21.5354 33.3833Z" fill="#F9EDE0"/>
<path d="M15.768 33.9507C15.5604 33.936 15.3535 33.9202 15.1489 33.8979C15.3541 33.9202 15.561 33.936 15.768 33.9507Z" fill="#F9EDE0"/>
<path d="M12.9885 33.5192C12.8127 33.4764 12.638 33.4306 12.4639 33.3826C12.638 33.4312 12.8127 33.4769 12.9885 33.5192Z" fill="#F9EDE0"/>
<path d="M14.7973 33.8533C14.6115 33.8293 14.4263 33.8041 14.2422 33.7742C14.4257 33.8041 14.6115 33.8287 14.7973 33.8533Z" fill="#F9EDE0"/>
<path d="M16.9999 33.9992C16.6869 33.9992 16.3768 33.9896 16.0679 33.9736C16.3768 33.9896 16.6869 33.9992 16.9999 33.9992Z" fill="#F9EDE0"/>
<path d="M13.8793 33.7092C13.7011 33.6764 13.5235 33.6412 13.3477 33.6025C13.5235 33.6412 13.7011 33.6764 13.8793 33.7092Z" fill="#F9EDE0"/>
<path d="M10.4492 32.6905C10.1848 32.5798 9.92336 32.4637 9.66602 32.3406C9.92395 32.4637 10.1854 32.5803 10.4492 32.6905Z" fill="#F9EDE0"/>
<path d="M11.2751 33.0092C11.081 32.9395 10.8893 32.865 10.6982 32.7888C10.8893 32.865 11.081 32.9395 11.2751 33.0092Z" fill="#F9EDE0"/>
<path d="M17.9321 33.9736C17.6231 33.9896 17.313 33.9992 17 33.9992C17.313 33.9992 17.6231 33.9896 17.9321 33.9736Z" fill="#F9EDE0"/>
<path d="M18.8505 33.8979C18.6453 33.9202 18.4384 33.936 18.2314 33.9507C18.4384 33.936 18.6453 33.9202 18.8505 33.8979Z" fill="#F9EDE0"/>
<path d="M20.6523 33.6025C20.4758 33.6412 20.2988 33.6764 20.1206 33.7092C20.2982 33.6764 20.4758 33.6412 20.6523 33.6025Z" fill="#F9EDE0"/>
<path d="M19.7578 33.7737C19.5737 33.8036 19.3885 33.8288 19.2026 33.8528C19.3879 33.8288 19.5737 33.8042 19.7578 33.7737Z" fill="#F9EDE0"/>
<path d="M24.3299 32.3413C24.0738 32.4638 23.8135 32.5799 23.5503 32.6901C23.8135 32.5799 24.0738 32.4644 24.3299 32.3413Z" fill="#F9EDE0"/>
<path d="M12.121 33.2859C11.9411 33.232 11.7635 33.174 11.5864 33.1147C11.7635 33.174 11.9411 33.232 12.121 33.2859Z" fill="#F9EDE0"/>
<path d="M23.5503 32.6904C23.4682 32.725 23.3844 32.7555 23.3018 32.7883C23.3838 32.7555 23.4677 32.725 23.5503 32.6904Z" fill="#F9EDE0"/>
<path d="M24.353 32.3311C24.3454 32.3346 24.3372 32.3381 24.3296 32.3416C24.3372 32.3381 24.3454 32.3352 24.353 32.3311Z" fill="#F9EDE0"/>
<path d="M13.347 33.6024C13.2269 33.576 13.1073 33.5485 12.9883 33.5198C13.1073 33.5485 13.2269 33.576 13.347 33.6024Z" fill="#F9EDE0"/>
<path d="M14.2418 33.7737C14.1204 33.7538 13.9997 33.7315 13.8789 33.7092C14.0003 33.7315 14.1204 33.7544 14.2418 33.7737Z" fill="#F9EDE0"/>
<path d="M16.0676 33.9729C15.9674 33.9678 15.8677 33.9575 15.7681 33.9507C15.8683 33.9575 15.9674 33.9678 16.0676 33.9729Z" fill="#F9EDE0"/>
<path d="M15.1491 33.8981C15.0313 33.8852 14.9146 33.8688 14.7974 33.8535C14.9146 33.8688 15.0313 33.8852 15.1491 33.8981Z" fill="#F9EDE0"/>
<path d="M9.6669 32.3411C9.66045 32.3381 9.65342 32.3352 9.64697 32.3323C9.65342 32.3352 9.66045 32.3381 9.6669 32.3411Z" fill="#F9EDE0"/>
<path d="M18.2317 33.9507C18.1314 33.9575 18.0324 33.9678 17.9321 33.9729C18.0324 33.9678 18.1314 33.9575 18.2317 33.9507Z" fill="#F9EDE0"/>
<path d="M21.8781 33.2861C21.7644 33.3201 21.6501 33.3518 21.5352 33.3834C21.6501 33.3518 21.7644 33.3201 21.8781 33.2861Z" fill="#F9EDE0"/>
<path d="M22.7248 33.0093C22.6217 33.0462 22.5173 33.0796 22.4136 33.1148C22.5173 33.0796 22.6217 33.0462 22.7248 33.0093Z" fill="#F9EDE0"/>
<path d="M10.6987 32.7888C10.6161 32.756 10.5323 32.7249 10.4502 32.6909C10.5323 32.7249 10.6161 32.7554 10.6987 32.7888Z" fill="#F9EDE0"/>
<path d="M11.5867 33.1148C11.4829 33.0796 11.378 33.0462 11.2754 33.0093C11.378 33.0462 11.4823 33.0796 11.5867 33.1148Z" fill="#F9EDE0"/>
<path d="M19.2018 33.8535C19.0846 33.8688 18.9679 33.8858 18.8501 33.8981C18.9679 33.8852 19.0846 33.8688 19.2018 33.8535Z" fill="#F9EDE0"/>
<path d="M21.0116 33.5193C20.8926 33.548 20.773 33.5756 20.6528 33.6019C20.773 33.5761 20.8926 33.5486 21.0116 33.5193Z" fill="#F9EDE0"/>
<path d="M20.1202 33.7092C19.9994 33.7315 19.8793 33.7544 19.7573 33.7737C19.8793 33.7544 19.9994 33.7315 20.1202 33.7092Z" fill="#F9EDE0"/>
<path d="M12.4645 33.3834C12.3502 33.3518 12.2353 33.3201 12.1216 33.2861C12.2353 33.3201 12.3496 33.3518 12.4645 33.3834Z" fill="#F9EDE0"/>
<path d="M21.8641 18.568C23.745 17.3389 24.9855 15.2411 24.9855 12.8571C24.9855 9.07029 21.8577 6 18 6C14.1423 6 11.0145 9.07029 11.0145 12.8571C11.0145 15.2411 12.255 17.3389 14.1359 18.568C14.1359 18.568 14.1364 18.5686 14.137 18.5686C14.1364 18.5686 14.1364 18.568 14.1364 18.568C9.63429 19.9 6.12874 23.4869 5 27.9994L5.00058 28C5.18453 28.2177 5.37547 28.4303 5.57048 28.6389C5.61763 28.6897 5.66711 28.7383 5.71543 28.788C5.86562 28.9446 6.01755 29.0989 6.17356 29.2497C6.23818 29.312 6.30396 29.372 6.36974 29.4331C6.51411 29.568 6.66022 29.7011 6.80924 29.8309C6.88317 29.8949 6.95827 29.9583 7.03278 30.0211C7.17889 30.144 7.32675 30.2646 7.47752 30.3823C7.55669 30.4446 7.63644 30.5057 7.71619 30.5669C7.86871 30.6823 8.02355 30.7943 8.18014 30.904C8.26106 30.9606 8.34081 31.0183 8.42289 31.0737C8.58821 31.1857 8.75645 31.2931 8.92585 31.3994C9.0021 31.4469 9.07662 31.496 9.15346 31.5429C9.34905 31.6611 9.54814 31.7743 9.74897 31.8851C9.80194 31.9143 9.85375 31.9457 9.90731 31.9743C10.1669 32.1137 10.4306 32.2474 10.6984 32.3737C10.7048 32.3766 10.7118 32.3794 10.7182 32.3823C10.9738 32.5023 11.2334 32.616 11.4959 32.7234C11.5774 32.7571 11.6607 32.7869 11.7427 32.8189C11.9325 32.8931 12.1223 32.9663 12.3156 33.0337C12.418 33.0697 12.5216 33.1023 12.6247 33.1366C12.8005 33.1949 12.9774 33.2514 13.1556 33.3034C13.2685 33.3366 13.382 33.3674 13.4961 33.3983C13.6684 33.4451 13.8419 33.4897 14.0171 33.5314C14.1353 33.5594 14.254 33.5863 14.3734 33.612C14.5486 33.6497 14.7244 33.684 14.9014 33.716C15.0213 33.7377 15.1406 33.76 15.2617 33.7789C15.4445 33.808 15.6284 33.8326 15.813 33.856C15.9294 33.8709 16.0452 33.8874 16.1622 33.8994C16.366 33.9211 16.5715 33.9366 16.777 33.9509C16.8765 33.9577 16.9749 33.968 17.0744 33.9731C17.3812 33.9903 17.6891 34 18 34C18.3109 34 18.6188 33.9903 18.9256 33.9743C19.0251 33.9691 19.1241 33.9589 19.223 33.952C19.4291 33.9377 19.6346 33.9223 19.8378 33.9006C19.9548 33.888 20.0706 33.872 20.187 33.8571C20.3716 33.8337 20.5555 33.8091 20.7383 33.78C20.8588 33.7606 20.9787 33.7389 21.0986 33.7171C21.2756 33.6851 21.452 33.6509 21.6266 33.6131C21.746 33.5874 21.8647 33.5606 21.9829 33.5326C22.1575 33.4909 22.331 33.4463 22.5039 33.3994C22.6174 33.3686 22.7315 33.3377 22.8444 33.3046C23.0231 33.252 23.1995 33.1954 23.3753 33.1377C23.4784 33.1034 23.5826 33.0709 23.6844 33.0349C23.8771 32.9669 24.0675 32.8943 24.2573 32.82C24.3393 32.788 24.4226 32.7577 24.5041 32.7246C24.7654 32.6171 25.0239 32.5046 25.2783 32.3846C25.2859 32.3811 25.294 32.3777 25.3016 32.3743C25.5694 32.248 25.8331 32.1143 26.0927 31.9749C26.1462 31.9463 26.1981 31.9149 26.251 31.8857C26.4519 31.7749 26.6509 31.6617 26.8465 31.5434C26.9234 31.4971 26.9985 31.448 27.0742 31.4C27.2436 31.2937 27.4118 31.1857 27.5771 31.0743C27.6586 31.0189 27.7389 30.9617 27.8199 30.9046C27.9764 30.7943 28.1313 30.6823 28.2838 30.5674C28.3641 30.5069 28.4433 30.4451 28.5225 30.3829C28.6727 30.2651 28.8211 30.1446 28.9672 30.0217C29.0423 29.9589 29.1174 29.8954 29.1908 29.8314C29.3398 29.7017 29.4859 29.5686 29.6303 29.4337C29.6955 29.3726 29.7618 29.312 29.8264 29.2503C29.9824 29.0994 30.135 28.9451 30.2846 28.7886C30.3323 28.7383 30.3818 28.6897 30.4295 28.6394C30.6245 28.4309 30.8155 28.2183 30.9994 28.0006L31 28C29.8718 23.4869 26.3663 19.9 21.8641 18.568Z" fill="white"/>
</svg>
