<svg width="21" height="20" viewBox="0 0 21 20" fill="none" xmlns="http://www.w3.org/2000/svg">
<g clip-path="url(#clip0)">
<path d="M12.9857 12.0257C12.7095 12.302 12.2905 12.3686 11.9432 12.1914C10.3685 11.3883 9.11165 10.1315 8.30858 8.55677C8.13142 8.20948 8.19795 7.79062 8.47413 7.51444L9.0851 6.90347L7.81053 5.62891L6.77888 6.66071C6.60691 6.83267 6.54664 7.3617 6.94291 8.28623C7.36131 9.26249 8.14363 10.352 9.14583 11.3542C10.148 12.3564 11.2377 13.1388 12.2138 13.5572C13.1384 13.9533 13.6673 13.8931 13.8393 13.7211L14.8709 12.6895L13.5965 11.4149L12.9857 12.0257Z" fill="#BEC5C5"/>
<path d="M17.6593 2.84073C15.8273 1.00876 13.3922 0 10.8012 0C10.8011 0 10.8004 0 10.8003 0C9.51886 0.000152588 8.27008 0.248261 7.0889 0.73761C5.90756 1.22696 4.84922 1.93451 3.943 2.84073C2.11118 4.67255 1.10242 7.10815 1.10242 9.69879C1.10242 11.2437 1.47519 12.7791 2.18152 14.147L0.551272 18.8043C0.436373 19.1328 0.517702 19.4899 0.763979 19.736C0.936251 19.9084 1.163 20 1.39615 20C1.4961 20 1.59711 19.9832 1.69568 19.9487L6.35297 18.3186C7.72092 19.025 9.25626 19.3977 10.8012 19.3977C13.3918 19.3977 15.8273 18.3888 17.6593 16.557C19.4911 14.7252 20.5 12.2896 20.5 9.69894C20.5 7.10815 19.4912 4.67255 17.6593 2.84073V2.84073ZM15.7206 13.4987L14.6687 14.5506C14.3524 14.8669 13.9166 15.0255 13.3891 15.0255C12.9117 15.0255 12.3591 14.8956 11.7517 14.6353C10.6416 14.1595 9.42151 13.2889 8.31632 12.1837C7.21112 11.0785 6.34046 9.8584 5.86469 8.74832C5.31674 7.46994 5.3468 6.43387 5.94937 5.8313L7.00131 4.77936C7.44748 4.33319 8.17349 4.33319 8.61966 4.77936L9.93466 6.09436C10.381 6.54053 10.381 7.26654 9.93466 7.71286L9.44669 8.20084C10.1071 9.41254 11.0876 10.3929 12.2993 11.0533L12.7873 10.5653C13.2335 10.119 13.9595 10.119 14.4056 10.5653L15.7206 11.8803C15.9369 12.0964 16.0559 12.3839 16.0559 12.6895C16.0559 12.9951 15.9369 13.2825 15.7206 13.4987V13.4987Z" fill="#BEC5C5"/>
</g>
<defs>
<clipPath id="clip0">
<rect width="20" height="20" fill="white" transform="translate(0.5)"/>
</clipPath>
</defs>
</svg>
