<svg width="61" height="60" viewBox="0 0 61 60" fill="none" xmlns="http://www.w3.org/2000/svg">
<g clip-path="url(#clip0)">
<path d="M50.8226 -0.000488281C48.7864 -0.000488281 46.8453 0.86377 45.2047 2.49825C43.6052 4.09304 42.8619 6.38765 43.0688 8.75644C36.0026 12.1261 31.4677 19.2391 31.4677 27.0963V32.9027H29.5323V27.0963C29.5323 19.2391 24.9974 12.1261 17.9302 8.75644C18.1372 6.38765 17.3939 4.09304 15.7944 2.49825C14.1547 0.86377 12.2136 -0.000488281 10.1774 -0.000488281C4.84114 -0.000488281 0.5 6.07672 0.5 13.5479C0.5 21.0191 4.84114 27.0963 10.1774 27.0963C12.2136 27.0963 14.1547 26.232 15.7953 24.5975C17.9647 22.4348 18.5733 18.9829 17.3457 15.8056C17.2408 15.5349 17.1704 15.2348 17.1075 14.9319C21.1737 17.5899 23.7258 22.19 23.7258 27.0963V33.251C21.9278 33.8152 20.4082 35.0433 19.5973 36.7061C18.4921 38.9686 18.6943 41.6436 20.1256 43.6873L24.1024 49.3681C25.7553 51.6981 26.6281 54.228 26.6281 56.6852V59.9995H34.37V56.6852C34.37 54.228 35.2428 51.6981 36.9207 49.334L40.7629 43.8461C41.4996 42.7942 41.9522 41.6384 42.0723 40.5072C42.2802 38.5632 41.6541 36.6197 40.3575 35.177C39.5201 34.2461 38.4489 33.5751 37.2742 33.2122V27.0963C37.2742 22.19 39.8263 17.5899 43.8934 14.931C43.8296 15.2339 43.7601 15.5335 43.6557 15.8047C42.4267 18.9829 43.0353 22.4338 45.2056 24.5966C46.8453 26.232 48.7864 27.0963 50.8226 27.0963C56.1589 27.0963 60.5 21.0191 60.5 13.5479C60.5 6.07672 56.1589 -0.000488281 50.8226 -0.000488281V-0.000488281ZM14.4288 23.2272C13.1591 24.4922 11.689 25.1608 10.1774 25.1608C5.90858 25.1608 2.43548 19.9516 2.43548 13.5479C2.43548 7.14417 5.90858 1.935 10.1774 1.935C11.689 1.935 13.1591 2.60363 14.4288 3.86859C16.0557 5.49031 16.4918 8.13034 15.5397 10.5932C15.1971 11.4796 15.0161 12.5017 15.0161 13.5479C15.0161 14.5941 15.1971 15.6162 15.5397 16.5026C16.4909 18.9655 16.0548 21.6055 14.4288 23.2272ZM17.0291 12.6364C17.092 12.1601 17.1869 11.7003 17.3443 11.2901C17.4189 11.0974 17.4653 10.9013 17.5267 10.7066C23.6776 13.8352 27.5968 20.1458 27.5968 27.0963V32.9027H25.9264C25.8366 32.9027 25.7501 32.9174 25.6613 32.9212V27.0963C25.6613 21.0933 22.2917 15.4971 17.0291 12.6364V12.6364ZM38.9177 36.4699C39.8627 37.5208 40.2993 38.8817 40.1476 40.3021C40.0612 41.1092 39.7257 41.9512 39.1766 42.7361L35.3184 48.2482C33.432 50.9076 32.4355 53.8254 32.4355 56.6852V58.064H28.5645V56.6852C28.5645 53.8254 27.5679 50.9076 25.6641 48.2241L21.7119 42.5783C20.6841 41.1101 20.541 39.1855 21.3362 37.5557C22.1414 35.9047 23.9436 34.8382 25.9264 34.8382H35.2584C36.6509 34.8382 37.9854 35.4336 38.9177 36.4699V36.4699ZM35.3387 27.0963V32.9065C35.3118 32.9065 35.2853 32.9027 35.2584 32.9027H33.4032V27.0963C33.4032 20.1458 37.3224 13.8352 43.4733 10.7075C43.5347 10.9022 43.5811 11.0974 43.6557 11.2911C43.8131 11.7003 43.908 12.1601 43.9709 12.6373C38.7083 15.4971 35.3387 21.0933 35.3387 27.0963V27.0963ZM50.8226 25.1608C49.311 25.1608 47.8409 24.4922 46.5712 23.2272C44.9443 21.6055 44.5082 18.9655 45.4603 16.5026C45.8029 15.6162 45.9839 14.5941 45.9839 13.5479C45.9839 12.5017 45.8029 11.4796 45.4603 10.5932C44.5091 8.13034 44.9452 5.49126 46.5712 3.86859C47.8409 2.60363 49.311 1.935 50.8226 1.935C55.0914 1.935 58.5645 7.14417 58.5645 13.5479C58.5645 19.9516 55.0914 25.1608 50.8226 25.1608V25.1608Z" fill="#70ABCD"/>
<path d="M46.9517 6.77368V8.70917C48.5252 8.70917 49.8549 10.9253 49.8549 13.5479C49.8549 16.1704 48.5252 18.3866 46.9517 18.3866V20.3221C49.6654 20.3221 51.7904 17.3461 51.7904 13.5479C51.7904 9.74968 49.6654 6.77368 46.9517 6.77368Z" fill="#70ABCD"/>
<path d="M9.20947 13.5479C9.20947 17.3461 11.3344 20.3221 14.0482 20.3221V18.3866C12.4747 18.3866 11.145 16.1704 11.145 13.5479C11.145 10.9253 12.4747 8.70917 14.0482 8.70917V6.77368C11.3344 6.77368 9.20947 9.74968 9.20947 13.5479Z" fill="#70ABCD"/>
<path d="M30.4999 44.328C29.2988 41.318 27.0344 38.797 24.0083 37.2835L23.1904 36.8752L22.3242 38.6066L23.1422 39.0149C27.084 40.9863 29.5322 44.948 29.5322 49.3543H31.4677C31.4677 44.948 33.9159 40.9863 37.8577 39.0158L38.6757 38.6075L37.8095 36.8762L36.9916 37.2845C33.9655 38.797 31.7011 41.318 30.4999 44.328V44.328Z" fill="#70ABCD"/>
</g>
<defs>
<clipPath id="clip0">
<rect width="60" height="60" fill="white" transform="translate(0.5 -0.000488281)"/>
</clipPath>
</defs>
</svg>
