<svg width="60" height="60" viewBox="0 0 60 60" fill="none" xmlns="http://www.w3.org/2000/svg">
<path d="M45.9457 4.00152C43.4849 4.00071 41.0663 3.36195 38.9259 2.14757C36.2766 0.69963 33.2981 -0.0395506 30.2792 0.00163128C30.1852 0.00163128 30.0932 0.00963105 29.9992 0.011631C29.9052 0.0136309 29.8132 0.00163128 29.7192 0.00163128C26.7002 -0.0395506 23.7218 0.69963 21.0724 2.14757C18.9314 3.37358 16.5048 4.01308 14.0376 4.00152H13.9996C6.27983 4.00152 0 8.26341 0 13.5013C0.0555167 15.5158 0.909527 17.4256 2.37394 18.8101C2.12884 19.3402 2.00126 19.917 1.99995 20.5011C1.99995 23.585 5.51385 26.0009 9.99973 26.0009C14.4856 26.0009 17.9995 23.585 17.9995 20.5011C17.9331 18.9244 17.0921 17.4824 15.7526 16.6482C16.1502 15.9261 16.727 15.3186 17.4275 14.8842C18.3673 14.3402 19.5662 14.595 20.2034 15.4742C20.7534 16.3482 20.8884 20.3191 20.9954 23.51C21.1514 28.1339 21.3124 32.9157 22.4254 35.2687C22.6618 35.7679 23.2581 35.981 23.7574 35.7447C24.2566 35.5083 24.4697 34.9119 24.2333 34.4127C23.2984 32.4347 23.1334 27.6579 22.9944 23.443C22.8334 18.6671 22.6944 15.6752 21.8944 14.4082C20.6919 12.6274 18.3206 12.0734 16.4536 13.1373C15.4188 13.7642 14.5689 14.6545 13.9906 15.7172C12.7159 15.2342 11.3628 14.9915 9.99973 15.0012C7.66612 14.9179 5.38334 15.6956 3.5859 17.1862C2.60905 16.2034 2.04214 14.8862 1.99995 13.5013C1.99995 9.36538 7.3828 6.00147 14.0466 6.00147H14.0886C15.4222 5.99903 16.7503 5.83108 18.0425 5.50148C17.3707 6.54594 17.0091 7.75957 16.9995 9.00139C16.9995 9.55366 17.4472 10.0014 17.9995 10.0014C18.5518 10.0014 18.9995 9.55366 18.9995 9.00139C18.9995 5.20149 23.9103 2.10157 29.9992 2.01058C36.088 2.10157 40.9989 5.20149 40.9989 9.00139C40.9989 9.55366 41.4466 10.0014 41.9989 10.0014C42.5511 10.0014 42.9988 9.55366 42.9988 9.00139C42.9896 7.75939 42.6275 6.5456 41.9549 5.50148C43.2625 5.83206 44.606 6 45.9547 6.00147H45.9987C52.6156 6.00147 57.9984 9.36538 57.9984 13.5013C57.9562 14.8862 57.3893 16.2034 56.4125 17.1862C54.615 15.6956 52.3322 14.9179 49.9986 15.0012C48.6494 14.9917 47.3097 15.2289 46.0457 15.7012C45.4682 14.6454 44.622 13.7609 43.5928 13.1373C41.7251 12.0742 39.3538 12.6279 38.15 14.4082C37.35 15.6752 37.212 18.6671 37.05 23.443C36.908 27.6579 36.75 32.4347 35.811 34.4127C35.5747 34.9119 35.7878 35.5083 36.287 35.7447C36.7863 35.981 37.3826 35.7679 37.619 35.2687C38.7309 32.9157 38.8929 28.1339 39.0489 23.51C39.1559 20.3191 39.2909 16.3482 39.8419 15.4742C40.4793 14.5944 41.6792 14.3399 42.6188 14.8852C43.3111 15.3134 43.8823 15.9117 44.2778 16.6232C42.9203 17.4562 42.0661 18.9098 41.9989 20.5011C41.9989 23.585 45.5128 26.0009 49.9986 26.0009C54.4845 26.0009 57.9984 23.585 57.9984 20.5011C57.9971 19.917 57.8695 19.3402 57.6244 18.8101C59.0888 17.4256 59.9428 15.5158 59.9984 13.5013C59.9984 8.26341 53.7185 4.00152 45.9457 4.00152ZM9.99973 17.0012C11.3715 16.9849 12.7277 17.2933 13.9576 17.9011L13.9656 17.9071H13.9726C15.0753 18.3313 15.8546 19.3285 15.9996 20.5011C15.9996 22.401 13.2516 24.001 9.99973 24.001C6.74782 24.001 3.99989 22.401 3.99989 20.5011C4.00975 20.0651 4.14897 19.6418 4.39988 19.2851V19.2771C5.27386 17.9631 7.4828 17.0012 9.99973 17.0012ZM49.9986 24.001C46.7467 24.001 43.9988 22.401 43.9988 20.5011C43.9988 18.2771 47.4407 17.0012 49.9986 17.0012C52.5156 17.0012 54.7235 17.9631 55.5985 19.2761L55.6035 19.2841C55.8528 19.6417 55.9903 20.0652 55.9985 20.5011C55.9985 22.401 53.2505 24.001 49.9986 24.001V24.001Z" fill="#70ABCD"/>
<path d="M29.9994 47.0002C30.5516 47.0002 30.9993 46.5525 30.9993 46.0003V27.3728C33.3257 26.8943 34.9962 24.8479 34.9992 22.4729V18.473C34.9992 15.7117 32.7607 13.4731 29.9994 13.4731C27.238 13.4731 24.9995 15.7117 24.9995 18.473V22.4729C25.0025 24.8479 26.673 26.8943 28.9994 27.3728V46.0003C28.9994 46.5525 29.4471 47.0002 29.9994 47.0002ZM26.9995 22.4739V18.474C26.9995 16.8172 28.3426 15.4741 29.9994 15.4741C31.6562 15.4741 32.9993 16.8172 32.9993 18.474V22.4739C32.9993 24.1268 31.6623 25.4683 30.0094 25.4738H29.9994H29.9894C28.3365 25.4683 26.9994 24.1268 26.9995 22.4739V22.4739Z" fill="#70ABCD"/>
<path d="M7 44.5006V53.5003C7 57.7672 18.5697 60.0002 29.9994 60.0002C41.4291 60.0002 52.9987 57.7672 52.9987 53.5003V44.5006C52.9987 40.4127 42.788 38.4927 34.0453 38.0918C33.4967 38.0756 33.0341 38.4971 32.9993 39.0447C32.9871 39.3097 33.0806 39.5686 33.2593 39.7646C33.4381 39.9606 33.6873 40.0775 33.9523 40.0897C45.8519 40.6357 50.9988 43.2746 50.9988 44.5006C50.9988 44.8676 50.5268 45.3616 49.5628 45.8865C46.2289 44.4086 40.6261 43.3946 34.0413 43.0926C33.4933 43.076 33.0315 43.4983 32.9993 44.0456C32.9871 44.3105 33.0806 44.5695 33.2593 44.7655C33.4381 44.9614 33.6873 45.0784 33.9523 45.0906C38.2972 45.2136 42.6119 45.8548 46.8049 47.0005C42.6167 48.1672 38.2998 48.8095 33.9533 48.9125C31.4023 49.0305 28.5964 49.0305 26.0455 48.9125C21.701 48.8086 17.3862 48.1664 13.1998 47.0005C16.0065 46.1969 18.8835 45.6629 21.7916 45.4056C22.1554 45.3804 22.4767 45.1592 22.63 44.8282C22.7832 44.4973 22.7442 44.1092 22.5281 43.8155C22.312 43.5217 21.9531 43.3688 21.5916 43.4166C17.7764 43.693 14.0223 44.5268 10.4489 45.8915C9.47393 45.3636 8.99995 44.8686 8.99995 44.5006C8.99995 43.2746 14.1468 40.6357 26.0455 40.0897C26.3106 40.0778 26.5601 39.9609 26.7391 39.7649C26.918 39.5689 27.0117 39.3098 26.9995 39.0447C26.9647 38.4975 26.5026 38.0761 25.9545 38.0918C17.2107 38.4927 7 40.4127 7 44.5006V44.5006ZM9.84792 47.8245C9.91051 47.8654 9.97762 47.899 10.0479 47.9245C13.7338 49.7104 20.1636 50.6424 25.9525 50.9084C27.2594 50.9694 28.6204 51.0004 29.9994 51.0004C31.3783 51.0004 32.7393 50.9694 34.0453 50.9094C39.8351 50.6434 46.2659 49.7094 49.9518 47.9245C50.0221 47.8988 50.0892 47.8653 50.1518 47.8245C50.4518 47.6705 50.7398 47.5095 51.0008 47.3435V53.5003C51.0008 55.0703 43.788 58.0002 30.0014 58.0002C16.2148 58.0002 8.99995 55.0703 8.99995 53.5003V47.3445C9.26094 47.5105 9.54493 47.6705 9.84792 47.8245V47.8245Z" fill="#70ABCD"/>
</svg>
