<svg width="22" height="23" viewBox="0 0 22 23" fill="none" xmlns="http://www.w3.org/2000/svg">
<path d="M20.5605 4.37695H4.01758C3.22386 4.37695 2.57812 5.02269 2.57812 5.81641V8.88867H0.322266C0.144289 8.88867 0 9.03292 0 9.21094C0 9.38896 0.144289 9.5332 0.322266 9.5332H4.18945C4.36743 9.5332 4.51172 9.38896 4.51172 9.21094C4.51172 9.03292 4.36743 8.88867 4.18945 8.88867H3.22266V5.81641C3.22266 5.71577 3.24221 5.61978 3.2765 5.53109L9.53447 11.7891L3.2765 18.047C3.24221 17.9583 3.22266 17.8624 3.22266 17.7617V15.6562C3.22266 15.4782 3.07837 15.334 2.90039 15.334C2.72241 15.334 2.57812 15.4782 2.57812 15.6562V17.7617C2.57812 18.5554 3.22386 19.2012 4.01758 19.2012H20.5605C21.3543 19.2012 22 18.5554 22 17.7617V5.81641C22 5.02269 21.3543 4.37695 20.5605 4.37695ZM15.0437 11.7891L21.3016 5.53109C21.3359 5.61978 21.3555 5.71577 21.3555 5.81641V17.7617C21.3555 17.8624 21.3359 17.9583 21.3016 18.047L15.0437 11.7891ZM20.5605 5.02148C20.6612 5.02148 20.7572 5.04104 20.8459 5.07532L13.6563 12.2649C12.9024 13.0188 11.6757 13.0188 10.9218 12.2649L3.73227 5.07532C3.82095 5.04104 3.91695 5.02148 4.01758 5.02148H20.5605ZM4.01758 18.5566C3.91695 18.5566 3.82095 18.5371 3.73227 18.5028L9.99023 12.2448L10.4661 12.7207C10.9687 13.2232 11.6289 13.4746 12.2891 13.4746C12.9493 13.4746 13.6095 13.2232 14.1121 12.7207L14.5879 12.2448L20.8459 18.5028C20.7572 18.5371 20.6612 18.5566 20.5606 18.5566H4.01758Z" fill="white"/>
<path d="M2.90039 10.1777C2.72241 10.1777 2.57812 10.322 2.57812 10.5V11.4668H0.322266C0.144289 11.4668 0 11.611 0 11.7891C0 11.9671 0.144289 12.1113 0.322266 12.1113H5.47852C5.65649 12.1113 5.80078 11.9671 5.80078 11.7891C5.80078 11.611 5.65649 11.4668 5.47852 11.4668H3.22266V10.5C3.22266 10.322 3.07837 10.1777 2.90039 10.1777Z" fill="white"/>
<path d="M4.18945 14.6895C4.36743 14.6895 4.51172 14.5452 4.51172 14.3672C4.51172 14.1892 4.36743 14.0449 4.18945 14.0449H3.22266V13.0781C3.22266 12.9001 3.07837 12.7559 2.90039 12.7559C2.72241 12.7559 2.57812 12.9001 2.57812 13.0781V14.0449H0.322266C0.144289 14.0449 0 14.1892 0 14.3672C0 14.5452 0.144289 14.6895 0.322266 14.6895H4.18945Z" fill="white"/>
</svg>
