<svg width="54" height="55" viewBox="0 0 54 55" fill="none" xmlns="http://www.w3.org/2000/svg">
<g clip-path="url(#clip0)">
<path d="M23.8358 14.0774L17.5166 19.9152L54.0003 19.9155L23.8358 14.0774Z" fill="#F7F7F7"/>
<path d="M17.5166 19.9155L23.8358 25.7533L54.0003 19.9157L17.5166 19.9155Z" fill="#F2F2F2"/>
<path d="M54 19.9155L20.2471 38.3046L23.8355 25.7533L54 19.9155Z" fill="white"/>
<path d="M54 19.9156L23.8355 14.0776L20.2471 1.52625L54 19.9156Z" fill="white"/>
<path d="M1.72712 43.4326C1.36354 43.4326 1.0239 43.2044 0.899084 42.8413C0.697445 42.2547 0.527097 41.6496 0.392943 41.043C0.288446 40.5707 0.586526 40.1032 1.05869 39.9987C1.52992 39.8944 1.99835 40.1922 2.10285 40.6645C2.22287 41.207 2.37512 41.7478 2.55528 42.2722C2.71243 42.7296 2.46911 43.2279 2.01178 43.3849C1.91744 43.4173 1.82146 43.4326 1.72712 43.4326Z" fill="white"/>
<path d="M0.875803 38.2166C0.387643 38.2141 -0.0023247 37.8201 1.04325e-05 37.3365C0.00316286 36.7176 0.0372558 36.0938 0.101589 35.4827C0.152261 35.0018 0.584145 34.6521 1.06413 34.7035C1.54517 34.7542 1.89392 35.185 1.84337 35.666C1.7851 36.2194 1.75416 36.7843 1.75136 37.3454C1.74891 37.8274 1.35731 38.2166 0.875803 38.2166Z" fill="white"/>
<path d="M1.69591 32.9895C1.60799 32.9895 1.51856 32.9762 1.43041 32.9482C0.969567 32.8017 0.714687 32.3092 0.861216 31.8484C1.04884 31.2583 1.26846 30.6726 1.514 30.1074C1.70677 29.664 2.2226 29.4607 2.66616 29.6532C3.10972 29.8459 3.31311 30.3617 3.12034 30.8054C2.89851 31.316 2.6999 31.8454 2.53025 32.379C2.41175 32.7516 2.0672 32.9895 1.69591 32.9895Z" fill="white"/>
<path d="M4.04446 28.2488C3.87072 28.2488 3.69524 28.1972 3.54217 28.0899C3.14625 27.812 3.05062 27.2659 3.32839 26.8701C3.68263 26.3653 4.06688 25.8723 4.4705 25.4051C4.78656 25.0391 5.33952 24.9985 5.70556 25.3148C6.07159 25.6309 6.11199 26.1838 5.79581 26.5499C5.43048 26.9729 5.08266 27.419 4.76193 27.876C4.59158 28.1187 4.32024 28.2488 4.04446 28.2488Z" fill="white"/>
<path d="M7.70055 24.4233C7.43855 24.4233 7.17947 24.3063 7.0069 24.0828C6.71127 23.7001 6.78191 23.1502 7.16476 22.8546C7.65338 22.4772 8.16653 22.1206 8.68995 21.7947C9.10058 21.5392 9.64058 21.6648 9.89616 22.0753C10.1517 22.486 10.0261 23.026 9.61559 23.2815C9.14191 23.5763 8.67745 23.8991 8.2353 24.2406C8.07581 24.3638 7.88736 24.4233 7.70055 24.4233Z" fill="white"/>
<path d="M13.0544 53.6694C12.9886 53.6694 12.9217 53.662 12.8548 53.6463C12.2506 53.5054 11.6473 53.3282 11.0615 53.1195C10.6059 52.9571 10.3682 52.4562 10.5305 52.0008C10.6928 51.5452 11.1936 51.3077 11.6493 51.4696C12.1731 51.6563 12.7125 51.8148 13.2526 51.9407C13.7236 52.0505 14.0163 52.5215 13.9065 52.9924C13.8122 53.3965 13.4522 53.6694 13.0544 53.6694Z" fill="white"/>
<path d="M8.1804 51.6171C8.01928 51.6171 7.85629 51.5726 7.71034 51.4795C7.1868 51.1456 6.67669 50.7787 6.19449 50.3888C5.8183 50.0848 5.7598 49.5336 6.06372 49.1574C6.36775 48.7811 6.91908 48.7225 7.29515 49.0267C7.72692 49.3755 8.18344 49.704 8.6521 50.0029C9.05981 50.2631 9.17961 50.8043 8.91947 51.2121C8.75239 51.4741 8.46938 51.6171 8.1804 51.6171Z" fill="white"/>
<path d="M4.26158 48.0712C4.00273 48.0712 3.74645 47.957 3.57365 47.7379C3.18917 47.2507 2.82816 46.7368 2.50077 46.2102C2.24543 45.7994 2.37141 45.2594 2.78204 45.0042C3.19291 44.7488 3.73291 44.875 3.98802 45.2855C4.28108 45.7567 4.60415 46.2168 4.94835 46.6529C5.24795 47.0325 5.18315 47.5831 4.80357 47.8827C4.64291 48.0098 4.45155 48.0712 4.26158 48.0712Z" fill="white"/>
<path d="M16.652 54.0522C16.1684 54.0522 15.7764 53.6603 15.7764 53.1766C15.7764 52.6928 16.1684 52.3009 16.652 52.3009C17.176 52.3009 17.704 52.2696 18.2213 52.2082C18.7019 52.1511 19.1371 52.494 19.1942 52.9743C19.2513 53.4546 18.9084 53.8902 18.428 53.9473C17.8425 54.0169 17.2449 54.0522 16.652 54.0522Z" fill="white"/>
<path d="M21.7438 53.0978C21.3936 53.0978 21.0631 52.8864 20.928 52.5408C20.7519 52.0904 20.9744 51.5824 21.4248 51.4064C21.9367 51.2062 22.4412 50.9712 22.9242 50.7079C23.3488 50.4765 23.8807 50.633 24.1122 51.0576C24.3437 51.4823 24.1872 52.014 23.7625 52.2456C23.2148 52.5443 22.6428 52.8107 22.0623 53.0376C21.9576 53.0784 21.8498 53.0978 21.7438 53.0978Z" fill="white"/>
<path d="M26.2206 50.3111C25.9864 50.3111 25.7527 50.2177 25.5803 50.033C25.2502 49.6794 25.2694 49.1253 25.6229 48.7952C26.0262 48.4187 26.4097 48.013 26.7629 47.5888C27.0724 47.217 27.6246 47.167 27.9962 47.4762C28.3679 47.7858 28.4183 48.3379 28.1088 48.7095C27.7089 49.1896 27.2747 49.6492 26.818 50.0754C26.6491 50.2331 26.4346 50.3111 26.2206 50.3111Z" fill="white"/>
<path d="M29.3363 46.0485C29.2107 46.0485 29.0833 46.0214 28.9622 45.9641C28.5251 45.7572 28.3384 45.235 28.5454 44.7979C28.7813 44.2992 28.9877 43.7807 29.1584 43.2565C29.3083 42.7967 29.8025 42.545 30.2622 42.6951C30.722 42.8448 30.9733 43.3391 30.8237 43.7989C30.63 44.3934 30.3961 44.9817 30.1284 45.5472C29.9787 45.8633 29.6641 46.0485 29.3363 46.0485Z" fill="white"/>
<path d="M12.3248 21.8595C11.9687 21.8595 11.6341 21.6408 11.5033 21.2873C11.3356 20.8337 11.5674 20.3301 12.021 20.1623C12.6006 19.948 13.1974 19.7612 13.7947 19.6073C14.2632 19.4862 14.7405 19.7684 14.8612 20.2367C14.982 20.705 14.7001 21.1826 14.2318 21.3033C13.6919 21.4423 13.1524 21.6113 12.6284 21.805C12.5282 21.842 12.4256 21.8595 12.3248 21.8595Z" fill="white"/>
</g>
<defs>
<clipPath id="clip0">
<rect width="54" height="54" fill="white" transform="translate(0 0.789062)"/>
</clipPath>
</defs>
</svg>
