<svg width="23" height="24" viewBox="0 0 23 24" fill="none" xmlns="http://www.w3.org/2000/svg">
<g clip-path="url(#clip0)">
<path d="M16.3386 0.789062H6.66154C5.73541 0.789062 4.98779 1.54003 4.98779 2.46449V22.1153C4.98779 23.0389 5.73541 23.7891 6.66154 23.7891H16.3386C17.2631 23.7891 18.0124 23.0389 18.0124 22.1153V2.46449C18.0124 1.54003 17.2631 0.789062 16.3386 0.789062ZM9.11224 1.80655H13.8896C14.0103 1.80655 14.1083 1.98675 14.1083 2.2097C14.1083 2.43264 14.0103 2.61367 13.8896 2.61367H9.11224C8.99071 2.61367 8.89432 2.43264 8.89432 2.2097C8.89432 1.98675 8.99071 1.80655 9.11224 1.80655ZM11.5009 22.1354C10.9117 22.1354 10.4323 21.656 10.4323 21.066C10.4323 20.4759 10.9117 19.9982 11.5009 19.9982C12.0884 19.9982 12.5679 20.4759 12.5679 21.066C12.5679 21.656 12.0884 22.1354 11.5009 22.1354ZM16.7585 18.4736H6.24248V3.61608H16.7585V18.4736Z" fill="white"/>
</g>
<defs>
<clipPath id="clip0">
<rect width="23" height="23" fill="white" transform="translate(0 0.789062)"/>
</clipPath>
</defs>
</svg>
