<svg width="50" height="49" viewBox="0 0 50 49" fill="none" xmlns="http://www.w3.org/2000/svg">
<g clip-path="url(#clip0)">
<g clip-path="url(#clip1)">
<path d="M39.9191 5.66522L43.451 2.13337L44.4702 3.15263L40.9384 6.68448C40.6539 6.96892 40.6539 7.443 40.9384 7.72744C41.0806 7.86966 41.2702 7.94078 41.4599 7.94078C41.6495 7.94078 41.8391 7.86966 41.9813 7.72744L46.0347 3.67411C46.3191 3.38966 46.3191 2.91559 46.0347 2.63115L43.9724 0.568924C43.8302 0.426702 43.6406 0.355591 43.451 0.355591C43.2613 0.355591 43.0717 0.426702 42.9295 0.568924L38.8999 4.62226C38.6154 4.9067 38.6154 5.38078 38.8999 5.66522C39.1843 5.94966 39.6347 5.94966 39.9191 5.66522Z" fill="#70ABCD"/>
<path d="M48.0023 46.5304H46.8408L41.152 35.7215C43.9253 32.6874 45.466 28.7526 45.466 24.6044C45.466 20.717 44.0912 16.9481 41.5786 13.9852C41.5786 13.9615 41.5786 13.9378 41.5786 13.8904C41.5786 12.8474 41.1757 11.9229 40.5357 11.1881L41.3653 10.3822C41.5075 10.24 41.5786 10.0504 41.5786 9.86072C41.5786 9.67109 41.5075 9.48147 41.3653 9.33924L37.2171 5.2148C36.9327 4.93035 36.4586 4.93035 36.1742 5.2148L22.9475 18.4652C22.8053 18.6074 22.7342 18.797 22.7342 18.9867C22.7342 19.1763 22.8053 19.3659 22.9475 19.5081L27.0957 23.6563C27.2379 23.7985 27.4275 23.8696 27.6171 23.8696C27.8068 23.8696 27.9964 23.7985 28.1386 23.6563L34.8468 16.9481C35.3208 17.3748 35.9134 17.6829 36.5534 17.8489C36.5771 17.92 36.6245 17.9911 36.672 18.0622C38.2364 19.8874 39.0897 22.2104 39.0897 24.6281C39.0897 30.1985 34.5623 34.7259 28.992 34.7259C27.8542 34.7259 26.7164 34.5363 25.6497 34.157H29.4423C29.8453 34.157 30.1771 33.8252 30.1771 33.4222C30.1771 33.0192 29.8453 32.6874 29.4423 32.6874H11.6882C11.2853 32.6874 10.9534 33.0192 10.9534 33.4222C10.9534 33.8252 11.2853 34.157 11.6882 34.157H15.552C18.3727 38.1392 22.8053 40.6518 27.6408 41.0548L23.7771 46.5304H11.0957C10.6927 46.5304 10.3608 46.8622 10.3608 47.2652C10.3608 47.6681 10.6927 48 11.0957 48H48.0023C48.4053 48 48.7371 47.6681 48.7371 47.2652C48.7371 46.8622 48.4053 46.5304 48.0023 46.5304ZM33.472 13.9378C33.472 14.6252 33.6379 15.2415 33.9223 15.8104L27.6171 22.1155L24.4882 18.9867L36.7194 6.75554L39.8482 9.88443L39.4216 10.3111C38.8527 10.0267 38.2127 9.86072 37.549 9.86072C35.2971 9.86072 33.472 11.6859 33.472 13.9378ZM34.9179 13.9378C34.9179 12.4918 36.0794 11.3304 37.5253 11.3304C38.9712 11.3304 40.1327 12.4918 40.1327 13.9378C40.1327 15.3837 38.9712 16.5452 37.5253 16.5452C36.1031 16.5452 34.9179 15.36 34.9179 13.9378ZM25.5312 46.5304L29.5845 40.7941C29.7505 40.5807 29.7505 40.2726 29.632 40.0355C29.5134 39.7985 29.2527 39.6326 28.992 39.6326C24.4882 39.6326 20.2216 37.5941 17.3771 34.1333H22.5208C22.5682 34.2044 22.6394 34.2518 22.7105 34.2992C24.5831 35.5081 26.7638 36.1481 28.992 36.1481C35.3682 36.1481 40.5594 30.957 40.5594 24.5807C40.5594 22.1629 39.8008 19.7926 38.4023 17.8489C39.6112 17.5881 40.6068 16.8059 41.152 15.7392C43.0245 18.2992 44.0201 21.3807 44.0201 24.5807C44.0201 28.5155 42.5031 32.237 39.7534 35.0578L39.7297 35.0815C39.7297 35.0815 39.7297 35.0815 39.706 35.1052C39.6823 35.1289 38.3075 36.717 35.5579 37.6415C35.3682 37.7126 35.2023 37.8548 35.1312 38.0444C35.0601 38.2341 35.0601 38.4474 35.1549 38.637L38.9712 46.4592H25.5312V46.5304ZM40.5831 46.5304L36.8142 38.7792C38.3549 38.1392 39.4216 37.3807 40.0853 36.8118L45.2053 46.5304H40.5831Z" fill="#70ABCD"/>
<path d="M22.3311 22.3763L24.3697 24.4148C24.5119 24.557 24.7015 24.6281 24.8911 24.6281C25.0808 24.6281 25.2704 24.557 25.4126 24.4148C25.6971 24.1304 25.6971 23.6563 25.4126 23.3718L23.3504 21.3333C23.066 21.0489 22.5919 21.0489 22.3074 21.3333C22.0467 21.6178 22.0467 22.0918 22.3311 22.3763Z" fill="#70ABCD"/>
<path d="M15.5993 17.683C14.5327 18.6786 13.0631 19.1289 11.2379 19.0578C10.8349 19.0341 10.5031 19.3423 10.4793 19.7452C10.4556 20.1482 10.7638 20.5037 11.1668 20.5037C11.309 20.5037 11.4749 20.5037 11.6171 20.5037C13.6556 20.5037 15.3149 19.9112 16.5949 18.726C18.6334 16.8297 19.1549 13.843 19.226 11.686C19.3208 8.41486 21.2408 7.65634 21.3119 7.63264C21.6201 7.53782 21.8097 7.25338 21.8097 6.92153C21.8097 6.61338 21.5964 6.32893 21.2882 6.23412C21.2171 6.21041 19.4631 5.66523 17.1164 5.71264C13.9638 5.78375 11.1905 6.87412 9.10453 8.86523C6.28379 11.6149 6.09416 14.4356 6.42602 16.3319C6.71046 17.92 7.42157 19.1289 7.70602 19.5793C7.54009 20.1719 7.42157 20.7645 7.35046 21.2623C7.30305 21.6652 7.5875 22.0208 7.96676 22.0919C7.99046 22.0919 8.03787 22.0919 8.06157 22.0919C8.41713 22.0919 8.72528 21.8312 8.77268 21.4519C8.93861 20.1956 9.5075 18.3704 10.0764 17.1852C11.2616 14.7675 12.7312 13.0371 13.7742 12.0178C14.0586 11.7334 14.0586 11.283 13.7742 10.9749C13.4897 10.6904 13.0393 10.6904 12.7312 10.9749C11.6171 12.0652 10.029 13.9378 8.74898 16.5215C8.58305 16.8534 8.41713 17.2326 8.2749 17.6119C7.56379 15.9526 6.9475 12.8949 10.029 9.90819C11.8542 8.15412 14.2008 7.22967 16.9979 7.15856C17.8512 7.13486 18.6097 7.20597 19.226 7.30078C18.4912 8.10671 17.7327 9.43412 17.6616 11.6149C17.6379 15.0756 16.5238 16.8297 15.5993 17.683Z" fill="#70ABCD"/>
<path d="M15.5044 27.0222L19.1074 31.1467C19.2496 31.3126 19.463 31.3837 19.6526 31.3837C19.7711 31.3837 19.8659 31.36 19.9844 31.3126C20.2926 31.1704 20.4348 30.8385 20.3637 30.5067L19.3919 26.003C20.1741 25.6711 20.9326 25.2681 21.6437 24.7704C21.9756 24.5333 22.0704 24.083 21.8333 23.7511C21.5963 23.4193 21.1459 23.3244 20.8141 23.5615C20.0319 24.083 19.1785 24.5333 18.2778 24.8652C17.9459 24.9837 17.7326 25.3393 17.8274 25.6948L18.3252 28.0178L16.3341 25.7422C16.1681 25.5526 15.9311 25.4578 15.6941 25.5052C15.1489 25.5763 14.6037 25.6237 14.0585 25.6237C7.39778 25.6237 1.96963 20.1956 1.96963 13.5348C1.96963 6.87407 7.39778 1.44593 14.0585 1.44593C16.9504 1.44593 19.7474 2.48889 21.9519 4.36148C24.1089 6.23407 25.5548 8.79407 26.0052 11.6148C26.0763 12.0178 26.4319 12.2785 26.8348 12.2311C27.2378 12.16 27.4985 11.8044 27.4511 11.4015C26.9533 8.24889 25.3415 5.35704 22.9 3.27111C20.4348 1.16148 17.3059 0 14.0585 0C6.56815 0 0.5 6.06815 0.5 13.5585C0.5 21.0252 6.56815 27.117 14.0585 27.117C14.5326 27.0933 15.0067 27.0696 15.5044 27.0222Z" fill="#70ABCD"/>
</g>
</g>
<defs>
<clipPath id="clip0">
<rect width="49" height="49" fill="white" transform="translate(0.5)"/>
</clipPath>
<clipPath id="clip1">
<rect width="48.237" height="48" fill="white" transform="translate(0.5)"/>
</clipPath>
</defs>
</svg>
