<svg width="50" height="49" viewBox="0 0 50 49" fill="none" xmlns="http://www.w3.org/2000/svg">
<path d="M47.2031 29.8594H41.0781V26.0312C41.0781 25.8282 40.9975 25.6335 40.8539 25.4899C40.7103 25.3463 40.5156 25.2656 40.3125 25.2656H38.0156V2.29688C38.0156 2.09382 37.935 1.89908 37.7914 1.7555C37.6478 1.61191 37.4531 1.53125 37.25 1.53125H11.2188C11.0157 1.53125 10.821 1.61191 10.6774 1.7555C10.5338 1.89908 10.4531 2.09382 10.4531 2.29688V22.9688H8.92188C8.82133 22.9687 8.72177 22.9885 8.62888 23.027C8.53598 23.0655 8.45158 23.1219 8.38048 23.193L6.08361 25.4899C6.01251 25.561 5.95612 25.6454 5.91765 25.7383C5.87917 25.8311 5.85937 25.9307 5.85938 26.0312V46.7031H5.86052C5.86018 46.8037 5.87972 46.9033 5.918 46.9963C5.95628 47.0892 6.01256 47.1737 6.0836 47.2449C6.15464 47.316 6.23905 47.3724 6.33196 47.4108C6.42487 47.4493 6.52446 47.4689 6.625 47.4688H40.3125C40.4624 47.4688 40.6089 47.4248 40.734 47.3423C40.8591 47.2598 40.9573 47.1424 41.0163 47.0047L47.9069 30.9266C47.9568 30.8101 47.9771 30.6831 47.9658 30.5569C47.9545 30.4307 47.9121 30.3093 47.8423 30.2035C47.7726 30.0977 47.6777 30.0109 47.5661 29.9509C47.4545 29.8908 47.3298 29.8594 47.2031 29.8594V29.8594ZM39.5469 26.7969V29.8594H38.0156V26.7969H39.5469ZM36.4844 3.0625V29.8594H13.5156C13.3658 29.8594 13.2192 29.9034 13.0942 29.9858C12.9691 30.0683 12.8709 30.1857 12.8119 30.3234L11.9844 32.2542V3.0625H36.4844ZM9.23904 24.5H10.4531V35.8271L7.39062 42.973V26.3483L9.23904 24.5ZM39.8077 45.9375H7.78607L14.0206 31.3906H46.0421L39.8077 45.9375Z" fill="#70ABCD"/>
<path d="M26.5312 11.4844H28.0625V13.0156C28.0625 13.2187 28.1432 13.4134 28.2867 13.557C28.4303 13.7006 28.6251 13.7812 28.8281 13.7812H31.8906C32.0937 13.7812 32.2884 13.7006 32.432 13.557C32.5756 13.4134 32.6562 13.2187 32.6562 13.0156V11.4844H34.1875C34.3906 11.4844 34.5853 11.4037 34.7289 11.2601C34.8725 11.1165 34.9531 10.9218 34.9531 10.7188V7.65625C34.9531 7.45319 34.8725 7.25845 34.7289 7.11487C34.5853 6.97129 34.3906 6.89062 34.1875 6.89062H32.6562V5.35938C32.6562 5.15632 32.5756 4.96158 32.432 4.818C32.2884 4.67441 32.0937 4.59375 31.8906 4.59375H28.8281C28.6251 4.59375 28.4303 4.67441 28.2867 4.818C28.1432 4.96158 28.0625 5.15632 28.0625 5.35938V6.89062H26.5312C26.3282 6.89062 26.1335 6.97129 25.9899 7.11487C25.8463 7.25845 25.7656 7.45319 25.7656 7.65625V10.7188C25.7656 10.9218 25.8463 11.1165 25.9899 11.2601C26.1335 11.4037 26.3282 11.4844 26.5312 11.4844ZM27.2969 8.42188H28.8281C29.0312 8.42188 29.2259 8.34121 29.3695 8.19763C29.5131 8.05405 29.5938 7.85931 29.5938 7.65625V6.125H31.125V7.65625C31.125 7.85931 31.2057 8.05405 31.3492 8.19763C31.4928 8.34121 31.6876 8.42188 31.8906 8.42188H33.4219V9.95312H31.8906C31.6876 9.95312 31.4928 10.0338 31.3492 10.1774C31.2057 10.321 31.125 10.5157 31.125 10.7188V12.25H29.5938V10.7188C29.5938 10.5157 29.5131 10.321 29.3695 10.1774C29.2259 10.0338 29.0312 9.95312 28.8281 9.95312H27.2969V8.42188Z" fill="#70ABCD"/>
<path d="M19.6406 16.0781H21.1719V17.6094H19.6406V16.0781Z" fill="#70ABCD"/>
<path d="M22.7031 16.0781H33.4219V17.6094H22.7031V16.0781Z" fill="#70ABCD"/>
<path d="M19.6406 21.4375H28.8281V22.9688H19.6406V21.4375Z" fill="#70ABCD"/>
<path d="M30.3594 21.4375H32.6562V22.9688H30.3594V21.4375Z" fill="#70ABCD"/>
<path d="M19.6406 24.5H25.7656V26.0312H19.6406V24.5Z" fill="#70ABCD"/>
<path d="M27.2969 24.5H34.1875V26.0312H27.2969V24.5Z" fill="#70ABCD"/>
<path d="M14.2812 19.1406H17.3438C17.5468 19.1406 17.7415 19.06 17.8851 18.9164C18.0287 18.7728 18.1094 18.5781 18.1094 18.375V15.3125C18.1094 15.1094 18.0287 14.9147 17.8851 14.7711C17.7415 14.6275 17.5468 14.5469 17.3438 14.5469H14.2812C14.0782 14.5469 13.8835 14.6275 13.7399 14.7711C13.5963 14.9147 13.5156 15.1094 13.5156 15.3125V18.375C13.5156 18.5781 13.5963 18.7728 13.7399 18.9164C13.8835 19.06 14.0782 19.1406 14.2812 19.1406ZM15.0469 16.0781H16.5781V17.6094H15.0469V16.0781Z" fill="#70ABCD"/>
<path d="M14.2812 26.0312H17.3438C17.5468 26.0312 17.7415 25.9506 17.8851 25.807C18.0287 25.6634 18.1094 25.4687 18.1094 25.2656V22.2031C18.1094 22.0001 18.0287 21.8053 17.8851 21.6617C17.7415 21.5182 17.5468 21.4375 17.3438 21.4375H14.2812C14.0782 21.4375 13.8835 21.5182 13.7399 21.6617C13.5963 21.8053 13.5156 22.0001 13.5156 22.2031V25.2656C13.5156 25.4687 13.5963 25.6634 13.7399 25.807C13.8835 25.9506 14.0782 26.0312 14.2812 26.0312ZM15.0469 22.9688H16.5781V24.5H15.0469V22.9688Z" fill="#70ABCD"/>
</svg>
